<svg width="132" height="32" viewBox="0 0 132 32" fill="none" xmlns="http://www.w3.org/2000/svg">
<path d="M100.782 0.253418L109.356 8.83342H123.414V22.8969L132 31.4769V0.253418H100.782ZM11 2.35992L0 29.6399H7.1995L9.2345 24.2389H21.45L23.694 29.6399H31.053L18.876 2.35992H11ZM34.1495 2.35992V29.6124H40.9585V12.6064L48.3175 21.1974H49.3515L56.7105 12.6394V29.6399H63.5195V2.35992H57.585L48.829 12.5074L40.0785 2.35992H34.1495ZM68.706 2.35992V29.6399H80.0195C90.904 29.6399 95.8595 23.8869 95.8595 16.0439C95.8595 8.56392 90.706 2.35992 80.751 2.35992H68.706ZM75.5095 7.36492H79.8655C86.3005 7.36492 88.8305 11.2754 88.8305 15.9999C88.8305 20.0039 86.7845 24.6459 79.9425 24.6459H75.5095V7.36492ZM15.092 8.86642L19.4425 19.4924H11.044L15.092 8.86642ZM109.346 10.5549L100.524 19.3714V31.7464H112.877L121.699 22.9079H109.346V10.5549Z" fill="#333333"/>
</svg>
