<svg width="746" height="458" viewBox="0 0 746 458" fill="none" xmlns="http://www.w3.org/2000/svg">
<g filter="url(#filter0_dd_18_857)">
<rect x="38" y="38" width="670" height="382" rx="20" fill="white"/>
</g>
<line x1="129.5" y1="127.133" x2="129.5" y2="383.498" stroke="#BFA5CB"/>
<line x1="265.334" y1="127.133" x2="265.334" y2="383.498" stroke="#BFA5CB"/>
<line x1="403.684" y1="127.133" x2="403.684" y2="383.498" stroke="#BFA5CB"/>
<line x1="537.002" y1="127.133" x2="537.002" y2="383.498" stroke="#BFA5CB"/>
<line x1="676.19" y1="127.133" x2="676.19" y2="383.498" stroke="#BFA5CB"/>
<rect x="129" y="148" width="497.398" height="12.7333" rx="5" fill="#333333"/>
<rect x="129" y="188.747" width="369.86" height="12.7333" rx="5" fill="#333333"/>
<rect x="129" y="229.493" width="302.69" height="12.7333" rx="5" fill="#333333"/>
<rect x="129" y="269.391" width="245.723" height="14.4311" rx="5" fill="#333333"/>
<rect x="129" y="310.987" width="119.886" height="12.7333" rx="5" fill="#333333"/>
<rect x="129" y="350.884" width="45.0635" height="14.4311" rx="5" fill="#333333"/>
<path d="M57.7681 157.632V156.375C57.9119 156.502 58.0833 156.616 58.2822 156.718C58.4854 156.819 58.6969 156.906 58.917 156.978C59.1413 157.046 59.3656 157.099 59.5898 157.137C59.8141 157.175 60.0215 157.194 60.2119 157.194C60.8678 157.194 61.3566 157.073 61.6782 156.832C62.0041 156.587 62.167 156.235 62.167 155.778C62.167 155.533 62.112 155.319 62.002 155.137C61.8962 154.955 61.748 154.79 61.5576 154.642C61.3672 154.49 61.1408 154.346 60.8784 154.21C60.6203 154.071 60.341 153.925 60.0405 153.772C59.7231 153.612 59.4269 153.449 59.1519 153.284C58.8768 153.119 58.6377 152.937 58.4346 152.738C58.2314 152.539 58.0706 152.315 57.9521 152.065C57.8379 151.811 57.7808 151.515 57.7808 151.176C57.7808 150.762 57.8717 150.402 58.0537 150.097C58.2357 149.788 58.4748 149.534 58.771 149.335C59.0672 149.137 59.4036 148.988 59.7803 148.891C60.1611 148.794 60.5483 148.745 60.9419 148.745C61.839 148.745 62.4928 148.853 62.9033 149.069V150.269C62.3659 149.896 61.6761 149.71 60.834 149.71C60.6012 149.71 60.3685 149.735 60.1357 149.786C59.903 149.833 59.6956 149.911 59.5137 150.021C59.3317 150.131 59.1836 150.273 59.0693 150.446C58.9551 150.62 58.8979 150.831 58.8979 151.081C58.8979 151.314 58.9403 151.515 59.0249 151.684C59.1138 151.853 59.2428 152.008 59.4121 152.147C59.5814 152.287 59.7866 152.423 60.0278 152.554C60.2733 152.685 60.5547 152.829 60.8721 152.985C61.1979 153.146 61.5068 153.315 61.7988 153.493C62.0908 153.671 62.3468 153.868 62.5669 154.083C62.7869 154.299 62.9604 154.538 63.0874 154.801C63.2186 155.063 63.2842 155.364 63.2842 155.702C63.2842 156.151 63.1953 156.532 63.0176 156.845C62.8441 157.154 62.6071 157.405 62.3066 157.6C62.0104 157.795 61.6676 157.934 61.2783 158.019C60.889 158.108 60.4785 158.152 60.0469 158.152C59.903 158.152 59.7253 158.14 59.5137 158.114C59.3021 158.093 59.0863 158.059 58.8662 158.013C58.6462 157.97 58.4367 157.917 58.2378 157.854C58.0431 157.786 57.8866 157.712 57.7681 157.632ZM67.5562 157.937C67.3107 158.072 66.987 158.14 66.585 158.14C65.4466 158.14 64.8774 157.505 64.8774 156.235V152.389H63.7603V151.5H64.8774V149.913L65.9185 149.577V151.5H67.5562V152.389H65.9185V156.051C65.9185 156.487 65.9925 156.798 66.1406 156.984C66.2887 157.171 66.5342 157.264 66.877 157.264C67.1393 157.264 67.3657 157.192 67.5562 157.048V157.937ZM73.5991 158H72.5581V156.984H72.5327C72.0799 157.763 71.4134 158.152 70.5332 158.152C69.8857 158.152 69.3779 157.981 69.0098 157.638C68.6458 157.295 68.4639 156.84 68.4639 156.273C68.4639 155.059 69.179 154.352 70.6094 154.153L72.5581 153.88C72.5581 152.776 72.1117 152.224 71.2188 152.224C70.4359 152.224 69.7292 152.49 69.0986 153.023V151.957C69.7376 151.551 70.474 151.348 71.3076 151.348C72.8353 151.348 73.5991 152.156 73.5991 153.772V158ZM72.5581 154.712L70.9902 154.928C70.5078 154.995 70.1439 155.116 69.8984 155.29C69.653 155.459 69.5303 155.761 69.5303 156.197C69.5303 156.515 69.6424 156.775 69.8667 156.978C70.0952 157.177 70.3978 157.276 70.7744 157.276C71.2907 157.276 71.716 157.097 72.0503 156.737C72.3888 156.373 72.5581 155.914 72.5581 155.359V154.712ZM78.9502 152.554C78.7682 152.414 78.5059 152.344 78.1631 152.344C77.7188 152.344 77.3464 152.554 77.0459 152.973C76.7497 153.392 76.6016 153.963 76.6016 154.687V158H75.5605V151.5H76.6016V152.839H76.627C76.7751 152.382 77.0015 152.027 77.3062 151.773C77.6108 151.515 77.9515 151.386 78.3281 151.386C78.599 151.386 78.8063 151.415 78.9502 151.475V152.554ZM81.1465 157.061H81.1211V158H80.0801V148.377H81.1211V152.643H81.1465C81.6585 151.779 82.4076 151.348 83.3936 151.348C84.2272 151.348 84.8789 151.64 85.3486 152.224C85.8226 152.803 86.0596 153.582 86.0596 154.56C86.0596 155.647 85.7951 156.519 85.2661 157.175C84.7371 157.826 84.0135 158.152 83.0952 158.152C82.2362 158.152 81.5866 157.788 81.1465 157.061ZM81.1211 154.439V155.347C81.1211 155.884 81.2946 156.341 81.6416 156.718C81.9928 157.09 82.4372 157.276 82.9746 157.276C83.6051 157.276 84.0981 157.035 84.4536 156.553C84.8133 156.07 84.9932 155.4 84.9932 154.541C84.9932 153.817 84.826 153.25 84.4917 152.839C84.1574 152.429 83.7046 152.224 83.1333 152.224C82.5282 152.224 82.0415 152.435 81.6733 152.858C81.3052 153.277 81.1211 153.804 81.1211 154.439ZM92.9785 158H91.9375V156.972H91.9121C91.4805 157.759 90.8118 158.152 89.9062 158.152C88.3574 158.152 87.583 157.23 87.583 155.385V151.5H88.6177V155.22C88.6177 156.591 89.1424 157.276 90.1919 157.276C90.6997 157.276 91.1165 157.09 91.4424 156.718C91.7725 156.341 91.9375 155.85 91.9375 155.245V151.5H92.9785V158ZM99.5166 157.702C99.0173 158.002 98.4248 158.152 97.7393 158.152C96.8125 158.152 96.0635 157.852 95.4922 157.251C94.9251 156.646 94.6416 155.863 94.6416 154.902C94.6416 153.832 94.9484 152.973 95.562 152.325C96.1756 151.674 96.9945 151.348 98.0186 151.348C98.5898 151.348 99.0934 151.453 99.5293 151.665V152.731C99.0469 152.393 98.5306 152.224 97.9805 152.224C97.3161 152.224 96.7702 152.463 96.3428 152.941C95.9196 153.415 95.708 154.039 95.708 154.813C95.708 155.575 95.9069 156.176 96.3047 156.616C96.7067 157.056 97.2441 157.276 97.917 157.276C98.484 157.276 99.0173 157.088 99.5166 156.711V157.702ZM106.486 158H105.026L102.157 154.877H102.132V158H101.091V148.377H102.132V154.477H102.157L104.887 151.5H106.251L103.236 154.636L106.486 158ZM107.159 157.765V156.648C107.726 157.067 108.35 157.276 109.032 157.276C109.946 157.276 110.403 156.972 110.403 156.362C110.403 156.189 110.363 156.043 110.282 155.924C110.206 155.802 110.1 155.694 109.965 155.601C109.834 155.507 109.677 155.425 109.495 155.353C109.317 155.277 109.125 155.199 108.917 155.118C108.63 155.004 108.376 154.89 108.156 154.775C107.94 154.657 107.758 154.526 107.61 154.382C107.466 154.234 107.356 154.067 107.28 153.88C107.208 153.694 107.172 153.476 107.172 153.227C107.172 152.922 107.242 152.653 107.381 152.42C107.521 152.183 107.707 151.987 107.94 151.83C108.173 151.669 108.437 151.549 108.733 151.468C109.034 151.388 109.343 151.348 109.66 151.348C110.223 151.348 110.727 151.445 111.171 151.64V152.693C110.693 152.38 110.143 152.224 109.521 152.224C109.326 152.224 109.15 152.247 108.994 152.293C108.837 152.336 108.702 152.397 108.587 152.478C108.477 152.558 108.391 152.655 108.327 152.77C108.268 152.88 108.238 153.002 108.238 153.138C108.238 153.307 108.268 153.449 108.327 153.563C108.391 153.677 108.482 153.779 108.6 153.868C108.719 153.957 108.862 154.037 109.032 154.109C109.201 154.181 109.394 154.259 109.609 154.344C109.897 154.454 110.155 154.568 110.384 154.687C110.612 154.801 110.807 154.932 110.968 155.08C111.129 155.224 111.251 155.391 111.336 155.582C111.425 155.772 111.469 155.998 111.469 156.261C111.469 156.582 111.397 156.862 111.253 157.099C111.114 157.336 110.925 157.532 110.688 157.689C110.451 157.846 110.179 157.962 109.87 158.038C109.561 158.114 109.237 158.152 108.898 158.152C108.23 158.152 107.65 158.023 107.159 157.765Z" fill="#727272"/>
<path d="M67.4736 199H66.4136V192.894C66.4136 192.411 66.4432 191.821 66.5024 191.123H66.4771C66.3755 191.533 66.2845 191.827 66.2041 192.005L63.0938 199H62.5732L59.4692 192.056C59.3804 191.853 59.2894 191.542 59.1963 191.123H59.1709C59.2048 191.486 59.2217 192.081 59.2217 192.906V199H58.1934V189.897H59.6025L62.3955 196.245C62.6113 196.732 62.751 197.096 62.8145 197.337H62.8525C63.0345 196.838 63.1805 196.465 63.2905 196.22L66.1406 189.897H67.4736V199ZM74.1641 198.702C73.6647 199.002 73.0723 199.152 72.3867 199.152C71.46 199.152 70.7109 198.852 70.1396 198.251C69.5726 197.646 69.2891 196.863 69.2891 195.902C69.2891 194.832 69.5959 193.973 70.2095 193.325C70.8231 192.674 71.6419 192.348 72.666 192.348C73.2373 192.348 73.7409 192.453 74.1768 192.665V193.731C73.6943 193.393 73.1781 193.224 72.6279 193.224C71.9635 193.224 71.4176 193.463 70.9902 193.941C70.5671 194.415 70.3555 195.039 70.3555 195.813C70.3555 196.575 70.5544 197.176 70.9521 197.616C71.3542 198.056 71.8916 198.276 72.5645 198.276C73.1315 198.276 73.6647 198.088 74.1641 197.711V198.702ZM75.8779 199V189.897H78.3916C81.5993 189.897 83.2031 191.376 83.2031 194.334C83.2031 195.739 82.7567 196.869 81.8638 197.724C80.9751 198.575 79.7839 199 78.29 199H75.8779ZM76.9443 190.862V198.035H78.3027C79.4961 198.035 80.425 197.716 81.0894 197.077C81.7537 196.438 82.0859 195.532 82.0859 194.36C82.0859 192.028 80.846 190.862 78.3662 190.862H76.9443ZM87.5703 199.152C86.6097 199.152 85.8416 198.85 85.2661 198.245C84.6948 197.635 84.4092 196.829 84.4092 195.826C84.4092 194.734 84.7075 193.882 85.3042 193.268C85.9009 192.654 86.707 192.348 87.7227 192.348C88.6917 192.348 89.4471 192.646 89.9888 193.243C90.5347 193.839 90.8076 194.667 90.8076 195.725C90.8076 196.761 90.5135 197.593 89.9253 198.219C89.3413 198.841 88.5563 199.152 87.5703 199.152ZM87.6465 193.224C86.9779 193.224 86.4489 193.452 86.0596 193.909C85.6702 194.362 85.4756 194.988 85.4756 195.788C85.4756 196.558 85.6724 197.166 86.0659 197.61C86.4595 198.054 86.9863 198.276 87.6465 198.276C88.3193 198.276 88.8356 198.058 89.1953 197.623C89.5592 197.187 89.7412 196.567 89.7412 195.763C89.7412 194.95 89.5592 194.324 89.1953 193.884C88.8356 193.444 88.3193 193.224 87.6465 193.224ZM97.8662 199H96.8252V195.293C96.8252 193.913 96.3216 193.224 95.3145 193.224C94.7939 193.224 94.3623 193.42 94.0195 193.814C93.681 194.203 93.5117 194.696 93.5117 195.293V199H92.4707V192.5H93.5117V193.579H93.5371C94.028 192.758 94.7389 192.348 95.6699 192.348C96.3809 192.348 96.9246 192.578 97.3013 193.04C97.6779 193.497 97.8662 194.159 97.8662 195.026V199ZM104.487 199H103.446V197.984H103.42C102.968 198.763 102.301 199.152 101.421 199.152C100.773 199.152 100.266 198.981 99.8975 198.638C99.5335 198.295 99.3516 197.84 99.3516 197.273C99.3516 196.059 100.067 195.352 101.497 195.153L103.446 194.88C103.446 193.776 102.999 193.224 102.106 193.224C101.324 193.224 100.617 193.49 99.9863 194.023V192.957C100.625 192.551 101.362 192.348 102.195 192.348C103.723 192.348 104.487 193.156 104.487 194.772V199ZM103.446 195.712L101.878 195.928C101.396 195.995 101.032 196.116 100.786 196.29C100.541 196.459 100.418 196.761 100.418 197.197C100.418 197.515 100.53 197.775 100.754 197.978C100.983 198.177 101.285 198.276 101.662 198.276C102.178 198.276 102.604 198.097 102.938 197.737C103.277 197.373 103.446 196.914 103.446 196.359V195.712ZM107.489 199H106.448V189.377H107.489V199ZM115.145 199H114.104V197.896H114.078C113.596 198.733 112.851 199.152 111.844 199.152C111.027 199.152 110.373 198.862 109.882 198.283C109.396 197.699 109.152 196.905 109.152 195.902C109.152 194.827 109.423 193.966 109.965 193.319C110.507 192.671 111.228 192.348 112.129 192.348C113.022 192.348 113.672 192.699 114.078 193.401H114.104V189.377H115.145V199ZM114.104 196.061V195.103C114.104 194.578 113.93 194.133 113.583 193.77C113.236 193.406 112.796 193.224 112.263 193.224C111.628 193.224 111.129 193.456 110.765 193.922C110.401 194.387 110.219 195.031 110.219 195.852C110.219 196.601 110.392 197.193 110.739 197.629C111.09 198.061 111.56 198.276 112.148 198.276C112.728 198.276 113.198 198.067 113.558 197.648C113.922 197.229 114.104 196.7 114.104 196.061ZM118.534 189.745L117.646 192.576H116.896L117.601 189.745H118.534ZM119.842 198.765V197.648C120.409 198.067 121.033 198.276 121.714 198.276C122.628 198.276 123.085 197.972 123.085 197.362C123.085 197.189 123.045 197.043 122.965 196.924C122.889 196.802 122.783 196.694 122.647 196.601C122.516 196.507 122.36 196.425 122.178 196.353C122 196.277 121.807 196.199 121.6 196.118C121.312 196.004 121.058 195.89 120.838 195.775C120.623 195.657 120.441 195.526 120.292 195.382C120.149 195.234 120.039 195.067 119.962 194.88C119.89 194.694 119.854 194.476 119.854 194.227C119.854 193.922 119.924 193.653 120.064 193.42C120.204 193.183 120.39 192.987 120.623 192.83C120.855 192.669 121.12 192.549 121.416 192.468C121.716 192.388 122.025 192.348 122.343 192.348C122.906 192.348 123.409 192.445 123.854 192.64V193.693C123.375 193.38 122.825 193.224 122.203 193.224C122.008 193.224 121.833 193.247 121.676 193.293C121.52 193.336 121.384 193.397 121.27 193.478C121.16 193.558 121.073 193.655 121.01 193.77C120.951 193.88 120.921 194.002 120.921 194.138C120.921 194.307 120.951 194.449 121.01 194.563C121.073 194.677 121.164 194.779 121.283 194.868C121.401 194.957 121.545 195.037 121.714 195.109C121.884 195.181 122.076 195.259 122.292 195.344C122.58 195.454 122.838 195.568 123.066 195.687C123.295 195.801 123.49 195.932 123.65 196.08C123.811 196.224 123.934 196.391 124.019 196.582C124.107 196.772 124.152 196.998 124.152 197.261C124.152 197.582 124.08 197.862 123.936 198.099C123.796 198.336 123.608 198.532 123.371 198.689C123.134 198.846 122.861 198.962 122.552 199.038C122.243 199.114 121.92 199.152 121.581 199.152C120.912 199.152 120.333 199.023 119.842 198.765Z" fill="#727272"/>
<path d="M62.916 242H58.1934V232.897H59.2598V241.035H62.916V242ZM65.4551 232.745L64.5664 235.576H63.8174L64.522 232.745H65.4551ZM70.9648 242.152C69.6742 242.152 68.6395 241.727 67.8608 240.876C67.0864 240.026 66.6992 238.919 66.6992 237.557C66.6992 236.092 67.0949 234.924 67.8862 234.053C68.6776 233.181 69.7546 232.745 71.1172 232.745C72.374 232.745 73.3854 233.168 74.1514 234.015C74.9215 234.861 75.3066 235.968 75.3066 237.334C75.3066 238.82 74.9131 239.994 74.126 240.857C73.3389 241.721 72.2852 242.152 70.9648 242.152ZM71.041 233.71C70.0846 233.71 69.3081 234.055 68.7114 234.745C68.1147 235.434 67.8164 236.34 67.8164 237.461C67.8164 238.583 68.1063 239.486 68.686 240.172C69.27 240.853 70.0296 241.194 70.9648 241.194C71.9635 241.194 72.7507 240.868 73.3262 240.216C73.9017 239.565 74.1895 238.653 74.1895 237.48C74.1895 236.279 73.9102 235.35 73.3516 234.694C72.793 234.038 72.0228 233.71 71.041 233.71ZM80.3467 236.554C80.1647 236.414 79.9023 236.344 79.5596 236.344C79.1152 236.344 78.7428 236.554 78.4424 236.973C78.1462 237.392 77.998 237.963 77.998 238.687V242H76.957V235.5H77.998V236.839H78.0234C78.1715 236.382 78.3979 236.027 78.7026 235.773C79.0073 235.515 79.348 235.386 79.7246 235.386C79.9954 235.386 80.2028 235.415 80.3467 235.475V236.554ZM86.7007 239.01H82.1113C82.1283 239.734 82.3229 240.292 82.6953 240.686C83.0677 241.08 83.5798 241.276 84.2314 241.276C84.9635 241.276 85.6364 241.035 86.25 240.553V241.53C85.6787 241.945 84.9233 242.152 83.9839 242.152C83.0656 242.152 82.3441 241.858 81.8193 241.27C81.2946 240.678 81.0322 239.846 81.0322 238.775C81.0322 237.764 81.3179 236.941 81.8892 236.306C82.4647 235.667 83.1777 235.348 84.0283 235.348C84.8789 235.348 85.5369 235.623 86.0024 236.173C86.4679 236.723 86.7007 237.487 86.7007 238.464V239.01ZM85.6343 238.128C85.63 237.527 85.484 237.059 85.1963 236.725C84.9128 236.391 84.5171 236.224 84.0093 236.224C83.5184 236.224 83.1016 236.399 82.7588 236.75C82.416 237.102 82.2044 237.561 82.124 238.128H85.6343ZM92.9341 242H91.8931V240.984H91.8677C91.4149 241.763 90.7484 242.152 89.8682 242.152C89.2207 242.152 88.7129 241.981 88.3447 241.638C87.9808 241.295 87.7988 240.84 87.7988 240.273C87.7988 239.059 88.514 238.352 89.9443 238.153L91.8931 237.88C91.8931 236.776 91.4466 236.224 90.5537 236.224C89.7708 236.224 89.0641 236.49 88.4336 237.023V235.957C89.0726 235.551 89.8089 235.348 90.6426 235.348C92.1702 235.348 92.9341 236.156 92.9341 237.772V242ZM91.8931 238.712L90.3252 238.928C89.8428 238.995 89.4788 239.116 89.2334 239.29C88.988 239.459 88.8652 239.761 88.8652 240.197C88.8652 240.515 88.9774 240.775 89.2017 240.978C89.4302 241.177 89.7327 241.276 90.1094 241.276C90.6257 241.276 91.0509 241.097 91.3853 240.737C91.7238 240.373 91.8931 239.914 91.8931 239.359V238.712ZM95.9365 242H94.8955V232.377H95.9365V242Z" fill="#727272"/>
<path d="M63.2778 280.01H58.6885C58.7054 280.734 58.9001 281.292 59.2725 281.686C59.6449 282.08 60.1569 282.276 60.8086 282.276C61.5407 282.276 62.2135 282.035 62.8271 281.553V282.53C62.2559 282.945 61.5005 283.152 60.561 283.152C59.6427 283.152 58.9212 282.858 58.3965 282.27C57.8717 281.678 57.6094 280.846 57.6094 279.775C57.6094 278.764 57.895 277.941 58.4663 277.306C59.0418 276.667 59.7549 276.348 60.6055 276.348C61.4561 276.348 62.1141 276.623 62.5796 277.173C63.0451 277.723 63.2778 278.487 63.2778 279.464V280.01ZM62.2114 279.128C62.2072 278.527 62.0612 278.059 61.7734 277.725C61.4899 277.391 61.0942 277.224 60.5864 277.224C60.0955 277.224 59.6787 277.399 59.3359 277.75C58.9932 278.102 58.7816 278.561 58.7012 279.128H62.2114ZM64.998 283V273.897H67.5879C68.375 273.897 68.9992 274.09 69.4604 274.475C69.9217 274.86 70.1523 275.362 70.1523 275.979C70.1523 276.496 70.0127 276.944 69.7334 277.325C69.4541 277.706 69.069 277.977 68.5781 278.138V278.163C69.1917 278.235 69.6826 278.468 70.0508 278.861C70.4189 279.251 70.603 279.758 70.603 280.385C70.603 281.163 70.3237 281.794 69.7651 282.276C69.2065 282.759 68.502 283 67.6514 283H64.998ZM66.0645 274.862V277.801H67.1562C67.7402 277.801 68.1994 277.662 68.5337 277.382C68.868 277.099 69.0352 276.701 69.0352 276.189C69.0352 275.305 68.4533 274.862 67.2896 274.862H66.0645ZM66.0645 278.76V282.035H67.5117C68.138 282.035 68.6226 281.887 68.9653 281.591C69.3123 281.295 69.4858 280.888 69.4858 280.372C69.4858 279.297 68.7537 278.76 67.2896 278.76H66.0645ZM76.9634 283H75.9224V281.984H75.897C75.4442 282.763 74.7777 283.152 73.8975 283.152C73.25 283.152 72.7422 282.981 72.374 282.638C72.0101 282.295 71.8281 281.84 71.8281 281.273C71.8281 280.059 72.5433 279.352 73.9736 279.153L75.9224 278.88C75.9224 277.776 75.4759 277.224 74.583 277.224C73.8001 277.224 73.0934 277.49 72.4629 278.023V276.957C73.1019 276.551 73.8382 276.348 74.6719 276.348C76.1995 276.348 76.9634 277.156 76.9634 278.772V283ZM75.9224 279.712L74.3545 279.928C73.8721 279.995 73.5081 280.116 73.2627 280.29C73.0173 280.459 72.8945 280.761 72.8945 281.197C72.8945 281.515 73.0067 281.775 73.231 281.978C73.4595 282.177 73.762 282.276 74.1387 282.276C74.6549 282.276 75.0802 282.097 75.4146 281.737C75.7531 281.373 75.9224 280.914 75.9224 280.359V279.712ZM84.0981 276.5L81.1084 284.041C80.5752 285.387 79.8262 286.06 78.8613 286.06C78.5905 286.06 78.3641 286.032 78.1821 285.977V285.044C78.4064 285.12 78.6117 285.158 78.7979 285.158C79.3226 285.158 79.7161 284.845 79.9785 284.219L80.499 282.987L77.96 276.5H79.1152L80.8735 281.502C80.8947 281.565 80.9391 281.73 81.0068 281.997H81.0449C81.0661 281.896 81.1084 281.735 81.1719 281.515L83.019 276.5H84.0981Z" fill="#727272"/>
<path d="M65.2393 323H64.0586L63.0938 320.448H59.2344L58.3267 323H57.1396L60.6309 313.897H61.7354L65.2393 323ZM62.7446 319.49L61.3164 315.611C61.2699 315.484 61.2233 315.281 61.1768 315.002H61.1514C61.109 315.26 61.0604 315.463 61.0054 315.611L59.5898 319.49H62.7446ZM67.5117 322.061H67.4863V325.99H66.4453V316.5H67.4863V317.643H67.5117C68.0238 316.779 68.7728 316.348 69.7588 316.348C70.5967 316.348 71.2505 316.64 71.7202 317.224C72.1899 317.803 72.4248 318.582 72.4248 319.56C72.4248 320.647 72.1603 321.519 71.6313 322.175C71.1024 322.826 70.3787 323.152 69.4604 323.152C68.6183 323.152 67.9688 322.788 67.5117 322.061ZM67.4863 319.439V320.347C67.4863 320.884 67.6598 321.341 68.0068 321.718C68.3581 322.09 68.8024 322.276 69.3398 322.276C69.9704 322.276 70.4634 322.035 70.8188 321.553C71.1785 321.07 71.3584 320.4 71.3584 319.541C71.3584 318.817 71.1912 318.25 70.8569 317.839C70.5226 317.429 70.0698 317.224 69.4985 317.224C68.8934 317.224 68.4067 317.435 68.0386 317.858C67.6704 318.277 67.4863 318.804 67.4863 319.439ZM75.1543 322.061H75.1289V325.99H74.0879V316.5H75.1289V317.643H75.1543C75.6663 316.779 76.4154 316.348 77.4014 316.348C78.2393 316.348 78.8931 316.64 79.3628 317.224C79.8325 317.803 80.0674 318.582 80.0674 319.56C80.0674 320.647 79.8029 321.519 79.2739 322.175C78.745 322.826 78.0213 323.152 77.103 323.152C76.2609 323.152 75.6113 322.788 75.1543 322.061ZM75.1289 319.439V320.347C75.1289 320.884 75.3024 321.341 75.6494 321.718C76.0007 322.09 76.445 322.276 76.9824 322.276C77.613 322.276 78.106 322.035 78.4614 321.553C78.8211 321.07 79.001 320.4 79.001 319.541C79.001 318.817 78.8338 318.25 78.4995 317.839C78.1652 317.429 77.7124 317.224 77.1411 317.224C76.536 317.224 76.0493 317.435 75.6812 317.858C75.313 318.277 75.1289 318.804 75.1289 319.439ZM82.7715 323H81.7305V313.377H82.7715V323ZM90.103 320.01H85.5137C85.5306 320.734 85.7253 321.292 86.0977 321.686C86.4701 322.08 86.9821 322.276 87.6338 322.276C88.3659 322.276 89.0387 322.035 89.6523 321.553V322.53C89.0811 322.945 88.3257 323.152 87.3862 323.152C86.4679 323.152 85.7464 322.858 85.2217 322.27C84.6969 321.678 84.4346 320.846 84.4346 319.775C84.4346 318.764 84.7202 317.941 85.2915 317.306C85.867 316.667 86.5801 316.348 87.4307 316.348C88.2812 316.348 88.9393 316.623 89.4048 317.173C89.8703 317.723 90.103 318.487 90.103 319.464V320.01ZM89.0366 319.128C89.0324 318.527 88.8864 318.059 88.5986 317.725C88.3151 317.391 87.9194 317.224 87.4116 317.224C86.9207 317.224 86.5039 317.399 86.1611 317.75C85.8184 318.102 85.6068 318.561 85.5264 319.128H89.0366Z" fill="#727272"/>
<path d="M59.2598 365H58.1934V355.897H59.2598V365ZM61.6592 365V355.897H64.249C65.0361 355.897 65.6603 356.09 66.1216 356.475C66.5828 356.86 66.8135 357.362 66.8135 357.979C66.8135 358.496 66.6738 358.944 66.3945 359.325C66.1152 359.706 65.7301 359.977 65.2393 360.138V360.163C65.8529 360.235 66.3438 360.468 66.7119 360.861C67.0801 361.251 67.2642 361.758 67.2642 362.385C67.2642 363.163 66.9849 363.794 66.4263 364.276C65.8677 364.759 65.1631 365 64.3125 365H61.6592ZM62.7256 356.862V359.801H63.8174C64.4014 359.801 64.8605 359.662 65.1948 359.382C65.5291 359.099 65.6963 358.701 65.6963 358.189C65.6963 357.305 65.1144 356.862 63.9507 356.862H62.7256ZM62.7256 360.76V364.035H64.1729C64.7992 364.035 65.2837 363.887 65.6265 363.591C65.9735 363.295 66.147 362.888 66.147 362.372C66.147 361.297 65.4149 360.76 63.9507 360.76H62.7256ZM78.3916 365H77.3315V358.894C77.3315 358.411 77.3612 357.821 77.4204 357.123H77.395C77.2935 357.533 77.2025 357.827 77.1221 358.005L74.0117 365H73.4912L70.3872 358.056C70.2983 357.853 70.2074 357.542 70.1143 357.123H70.0889C70.1227 357.486 70.1396 358.081 70.1396 358.906V365H69.1113V355.897H70.5205L73.3135 362.245C73.5293 362.732 73.6689 363.096 73.7324 363.337H73.7705C73.9525 362.838 74.0985 362.465 74.2085 362.22L77.0586 355.897H78.3916V365Z" fill="#727272"/>
<path d="M637.411 152.5C637.271 152.742 637.102 153.042 636.903 153.402C636.709 153.762 636.501 154.166 636.281 154.614C636.061 155.063 635.837 155.545 635.608 156.062C635.38 156.578 635.166 157.111 634.967 157.661C634.768 158.211 634.593 158.77 634.44 159.337C634.292 159.9 634.184 160.454 634.117 161H633C633.076 160.458 633.192 159.906 633.349 159.343C633.509 158.776 633.689 158.222 633.888 157.68C634.091 157.134 634.305 156.61 634.529 156.106C634.754 155.602 634.972 155.139 635.183 154.716C635.395 154.293 635.587 153.92 635.761 153.599C635.938 153.273 636.08 153.019 636.186 152.837H631.622V151.897H637.411V152.5ZM643.403 151.897V157.909H644.571V158.861H643.403V161H642.375V158.861H638.097V157.959C638.494 157.511 638.896 157.033 639.303 156.525C639.709 156.013 640.096 155.494 640.464 154.97C640.837 154.445 641.18 153.922 641.493 153.402C641.81 152.877 642.077 152.376 642.292 151.897H643.403ZM639.271 157.909H642.375V153.453C642.058 154.007 641.757 154.502 641.474 154.938C641.19 155.374 640.919 155.77 640.661 156.125C640.407 156.48 640.164 156.802 639.931 157.09C639.698 157.378 639.478 157.651 639.271 157.909ZM647.021 159.553L646.006 162.676H645.263L646.006 159.553H647.021ZM654.245 152.5C654.105 152.742 653.936 153.042 653.737 153.402C653.543 153.762 653.335 154.166 653.115 154.614C652.895 155.063 652.671 155.545 652.442 156.062C652.214 156.578 652 157.111 651.801 157.661C651.602 158.211 651.427 158.77 651.274 159.337C651.126 159.9 651.018 160.454 650.951 161H649.833C649.91 160.458 650.026 159.906 650.183 159.343C650.343 158.776 650.523 158.222 650.722 157.68C650.925 157.134 651.139 156.61 651.363 156.106C651.588 155.602 651.806 155.139 652.017 154.716C652.229 154.293 652.421 153.92 652.595 153.599C652.772 153.273 652.914 153.019 653.02 152.837H648.456V151.897H654.245V152.5ZM660.237 151.897V157.909H661.405V158.861H660.237V161H659.209V158.861H654.931V157.959C655.328 157.511 655.73 157.033 656.137 156.525C656.543 156.013 656.93 155.494 657.298 154.97C657.671 154.445 658.014 153.922 658.327 153.402C658.644 152.877 658.911 152.376 659.126 151.897H660.237ZM656.105 157.909H659.209V153.453C658.892 154.007 658.591 154.502 658.308 154.938C658.024 155.374 657.753 155.77 657.495 156.125C657.241 156.48 656.998 156.802 656.765 157.09C656.532 157.378 656.312 157.651 656.105 157.909ZM667.245 151.897V157.909H668.413V158.861H667.245V161H666.217V158.861H661.938V157.959C662.336 157.511 662.738 157.033 663.145 156.525C663.551 156.013 663.938 155.494 664.306 154.97C664.679 154.445 665.021 153.922 665.334 153.402C665.652 152.877 665.918 152.376 666.134 151.897H667.245ZM663.113 157.909H666.217V153.453C665.899 154.007 665.599 154.502 665.315 154.938C665.032 155.374 664.761 155.77 664.503 156.125C664.249 156.48 664.006 156.802 663.773 157.09C663.54 157.378 663.32 157.651 663.113 157.909Z" fill="#727272"/>
<path d="M510.151 198.22C510.151 198.664 510.075 199.066 509.922 199.426C509.77 199.785 509.552 200.094 509.269 200.353C508.989 200.611 508.651 200.81 508.253 200.949C507.855 201.089 507.413 201.159 506.926 201.159C506.08 201.159 505.451 201.032 505.041 200.778V199.673C505.659 200.071 506.292 200.27 506.939 200.27C507.269 200.27 507.565 200.221 507.828 200.124C508.094 200.027 508.321 199.891 508.507 199.718C508.693 199.544 508.835 199.335 508.932 199.089C509.034 198.844 509.084 198.575 509.084 198.283C509.084 197.691 508.886 197.227 508.488 196.893C508.09 196.555 507.512 196.385 506.755 196.385C506.632 196.385 506.503 196.387 506.368 196.392C506.232 196.396 506.097 196.402 505.961 196.411C505.826 196.415 505.693 196.421 505.562 196.43C505.435 196.438 505.318 196.449 505.212 196.461L505.523 191.897H509.732V192.837H506.425L506.241 195.509C506.376 195.501 506.52 195.494 506.672 195.49C506.825 195.482 506.96 195.478 507.079 195.478C507.561 195.478 507.993 195.541 508.374 195.668C508.754 195.795 509.076 195.977 509.338 196.214C509.605 196.447 509.806 196.734 509.941 197.077C510.081 197.416 510.151 197.797 510.151 198.22ZM517.495 198.112C517.495 198.556 517.423 198.965 517.279 199.337C517.135 199.709 516.937 200.031 516.683 200.302C516.429 200.573 516.126 200.784 515.775 200.937C515.424 201.085 515.043 201.159 514.632 201.159C514.175 201.159 513.765 201.063 513.401 200.873C513.041 200.683 512.734 200.41 512.48 200.054C512.231 199.694 512.04 199.257 511.909 198.74C511.778 198.224 511.712 197.642 511.712 196.995C511.712 196.203 511.799 195.486 511.973 194.843C512.15 194.195 512.4 193.643 512.722 193.186C513.048 192.725 513.439 192.369 513.896 192.12C514.353 191.87 514.863 191.745 515.426 191.745C516.052 191.745 516.556 191.832 516.937 192.005V192.989C516.467 192.748 515.972 192.627 515.451 192.627C515.045 192.627 514.679 192.718 514.353 192.9C514.027 193.082 513.748 193.34 513.515 193.675C513.282 194.005 513.103 194.405 512.976 194.875C512.853 195.344 512.792 195.867 512.792 196.442H512.817C513.236 195.685 513.928 195.306 514.893 195.306C515.29 195.306 515.648 195.374 515.965 195.509C516.287 195.645 516.56 195.837 516.784 196.087C517.013 196.332 517.188 196.626 517.311 196.969C517.434 197.312 517.495 197.693 517.495 198.112ZM516.429 198.245C516.429 197.928 516.389 197.642 516.308 197.388C516.228 197.134 516.111 196.918 515.959 196.741C515.811 196.563 515.627 196.428 515.407 196.334C515.187 196.237 514.937 196.188 514.658 196.188C514.4 196.188 514.16 196.237 513.94 196.334C513.72 196.432 513.53 196.565 513.369 196.734C513.208 196.899 513.081 197.094 512.988 197.318C512.899 197.538 512.855 197.773 512.855 198.023C512.855 198.336 512.899 198.63 512.988 198.905C513.077 199.176 513.202 199.413 513.363 199.616C513.524 199.819 513.714 199.98 513.934 200.099C514.158 200.213 514.406 200.27 514.677 200.27C514.939 200.27 515.178 200.221 515.394 200.124C515.61 200.022 515.794 199.883 515.946 199.705C516.099 199.527 516.217 199.316 516.302 199.07C516.386 198.821 516.429 198.546 516.429 198.245ZM520.021 199.553L519.006 202.676H518.263L519.006 199.553H520.021ZM526.229 191.897V197.909H527.397V198.861H526.229V201H525.201V198.861H520.923V197.959C521.321 197.511 521.723 197.033 522.129 196.525C522.535 196.013 522.922 195.494 523.291 194.97C523.663 194.445 524.006 193.922 524.319 193.402C524.636 192.877 524.903 192.376 525.119 191.897H526.229ZM522.097 197.909H525.201V193.453C524.884 194.007 524.583 194.502 524.3 194.938C524.016 195.374 523.745 195.77 523.487 196.125C523.233 196.48 522.99 196.802 522.757 197.09C522.525 197.378 522.305 197.651 522.097 197.909ZM533.891 198.423C533.891 198.833 533.813 199.208 533.656 199.546C533.504 199.881 533.286 200.168 533.002 200.41C532.723 200.647 532.387 200.831 531.993 200.962C531.6 201.093 531.166 201.159 530.692 201.159C529.824 201.159 529.135 200.994 528.623 200.664V199.546C529.236 200.029 529.939 200.27 530.73 200.27C531.047 200.27 531.333 200.23 531.587 200.149C531.845 200.069 532.065 199.953 532.247 199.8C532.433 199.648 532.575 199.464 532.672 199.248C532.774 199.032 532.825 198.789 532.825 198.518C532.825 197.329 531.978 196.734 530.286 196.734H529.53V195.852H530.248C531.746 195.852 532.495 195.293 532.495 194.176C532.495 193.144 531.923 192.627 530.781 192.627C530.138 192.627 529.535 192.843 528.972 193.275V192.266C529.551 191.919 530.241 191.745 531.041 191.745C531.422 191.745 531.767 191.798 532.076 191.904C532.385 192.01 532.649 192.158 532.869 192.348C533.089 192.539 533.258 192.767 533.377 193.034C533.5 193.3 533.561 193.594 533.561 193.916C533.561 195.114 532.956 195.884 531.746 196.227V196.252C532.055 196.286 532.34 196.362 532.603 196.48C532.865 196.595 533.091 196.745 533.282 196.931C533.472 197.117 533.62 197.337 533.726 197.591C533.836 197.841 533.891 198.118 533.891 198.423ZM539.75 194.284C539.75 194.005 539.706 193.762 539.617 193.554C539.532 193.347 539.414 193.175 539.261 193.04C539.113 192.9 538.938 192.797 538.734 192.729C538.531 192.661 538.311 192.627 538.074 192.627C537.871 192.627 537.672 192.655 537.478 192.71C537.283 192.765 537.092 192.841 536.906 192.938C536.724 193.036 536.547 193.152 536.373 193.288C536.204 193.423 536.045 193.573 535.897 193.738V192.621C536.189 192.338 536.515 192.122 536.875 191.974C537.238 191.821 537.681 191.745 538.201 191.745C538.574 191.745 538.918 191.8 539.236 191.91C539.553 192.016 539.828 192.173 540.061 192.38C540.294 192.587 540.476 192.843 540.607 193.148C540.742 193.453 540.81 193.802 540.81 194.195C540.81 194.555 540.768 194.881 540.683 195.173C540.603 195.465 540.478 195.74 540.309 195.998C540.144 196.256 539.934 196.504 539.68 196.741C539.426 196.978 539.128 197.219 538.785 197.464C538.358 197.769 538.004 198.029 537.725 198.245C537.45 198.461 537.23 198.664 537.065 198.854C536.904 199.041 536.79 199.229 536.722 199.419C536.659 199.606 536.627 199.821 536.627 200.067H541.159V201H535.542V200.549C535.542 200.16 535.584 199.817 535.668 199.521C535.753 199.225 535.893 198.943 536.087 198.677C536.282 198.41 536.536 198.144 536.849 197.877C537.167 197.61 537.554 197.31 538.011 196.976C538.341 196.739 538.616 196.512 538.836 196.296C539.06 196.081 539.24 195.865 539.375 195.649C539.511 195.433 539.606 195.215 539.661 194.995C539.72 194.771 539.75 194.534 539.75 194.284Z" fill="#727272"/>
<path d="M446.396 233.897V239.909H447.563V240.861H446.396V243H445.367V240.861H441.089V239.959C441.487 239.511 441.889 239.033 442.295 238.525C442.701 238.013 443.088 237.494 443.457 236.97C443.829 236.445 444.172 235.922 444.485 235.402C444.802 234.877 445.069 234.376 445.285 233.897H446.396ZM442.263 239.909H445.367V235.453C445.05 236.007 444.749 236.502 444.466 236.938C444.182 237.374 443.911 237.77 443.653 238.125C443.399 238.48 443.156 238.802 442.923 239.09C442.691 239.378 442.471 239.651 442.263 239.909ZM454.057 240.423C454.057 240.833 453.979 241.208 453.822 241.546C453.67 241.881 453.452 242.168 453.168 242.41C452.889 242.647 452.553 242.831 452.159 242.962C451.766 243.093 451.332 243.159 450.858 243.159C449.99 243.159 449.301 242.994 448.789 242.664V241.546C449.402 242.029 450.105 242.27 450.896 242.27C451.213 242.27 451.499 242.23 451.753 242.149C452.011 242.069 452.231 241.953 452.413 241.8C452.599 241.648 452.741 241.464 452.838 241.248C452.94 241.032 452.991 240.789 452.991 240.518C452.991 239.329 452.144 238.734 450.452 238.734H449.696V237.852H450.414C451.912 237.852 452.661 237.293 452.661 236.176C452.661 235.144 452.089 234.627 450.947 234.627C450.304 234.627 449.701 234.843 449.138 235.275V234.266C449.717 233.919 450.407 233.745 451.207 233.745C451.588 233.745 451.933 233.798 452.242 233.904C452.551 234.01 452.815 234.158 453.035 234.348C453.255 234.539 453.424 234.767 453.543 235.034C453.666 235.3 453.727 235.594 453.727 235.916C453.727 237.114 453.122 237.884 451.912 238.227V238.252C452.221 238.286 452.506 238.362 452.769 238.48C453.031 238.595 453.257 238.745 453.448 238.931C453.638 239.117 453.786 239.337 453.892 239.591C454.002 239.841 454.057 240.118 454.057 240.423ZM457.021 241.553L456.006 244.676H455.263L456.006 241.553H457.021ZM464.321 240.112C464.321 240.556 464.249 240.965 464.105 241.337C463.962 241.709 463.763 242.031 463.509 242.302C463.255 242.573 462.952 242.784 462.601 242.937C462.25 243.085 461.869 243.159 461.458 243.159C461.001 243.159 460.591 243.063 460.227 242.873C459.867 242.683 459.561 242.41 459.307 242.054C459.057 241.694 458.867 241.257 458.735 240.74C458.604 240.224 458.539 239.642 458.539 238.995C458.539 238.203 458.625 237.486 458.799 236.843C458.977 236.195 459.226 235.643 459.548 235.186C459.874 234.725 460.265 234.369 460.722 234.12C461.179 233.87 461.689 233.745 462.252 233.745C462.878 233.745 463.382 233.832 463.763 234.005V234.989C463.293 234.748 462.798 234.627 462.277 234.627C461.871 234.627 461.505 234.718 461.179 234.9C460.853 235.082 460.574 235.34 460.341 235.675C460.109 236.005 459.929 236.405 459.802 236.875C459.679 237.344 459.618 237.867 459.618 238.442H459.643C460.062 237.685 460.754 237.306 461.719 237.306C462.117 237.306 462.474 237.374 462.792 237.509C463.113 237.645 463.386 237.837 463.61 238.087C463.839 238.332 464.014 238.626 464.137 238.969C464.26 239.312 464.321 239.693 464.321 240.112ZM463.255 240.245C463.255 239.928 463.215 239.642 463.134 239.388C463.054 239.134 462.938 238.918 462.785 238.741C462.637 238.563 462.453 238.428 462.233 238.334C462.013 238.237 461.763 238.188 461.484 238.188C461.226 238.188 460.987 238.237 460.767 238.334C460.547 238.432 460.356 238.565 460.195 238.734C460.035 238.899 459.908 239.094 459.814 239.318C459.726 239.538 459.681 239.773 459.681 240.023C459.681 240.336 459.726 240.63 459.814 240.905C459.903 241.176 460.028 241.413 460.189 241.616C460.35 241.819 460.54 241.98 460.76 242.099C460.985 242.213 461.232 242.27 461.503 242.27C461.765 242.27 462.004 242.221 462.22 242.124C462.436 242.022 462.62 241.883 462.772 241.705C462.925 241.527 463.043 241.316 463.128 241.07C463.213 240.821 463.255 240.546 463.255 240.245ZM471.253 234.5C471.113 234.742 470.944 235.042 470.745 235.402C470.55 235.762 470.343 236.166 470.123 236.614C469.903 237.063 469.679 237.545 469.45 238.062C469.222 238.578 469.008 239.111 468.809 239.661C468.61 240.211 468.435 240.77 468.282 241.337C468.134 241.9 468.026 242.454 467.958 243H466.841C466.917 242.458 467.034 241.906 467.19 241.343C467.351 240.776 467.531 240.222 467.73 239.68C467.933 239.134 468.147 238.61 468.371 238.106C468.595 237.602 468.813 237.139 469.025 236.716C469.236 236.293 469.429 235.92 469.603 235.599C469.78 235.273 469.922 235.019 470.028 234.837H465.464V233.897H471.253V234.5ZM472.421 240.461C472.421 240.22 472.459 239.979 472.535 239.737C472.611 239.492 472.719 239.263 472.859 239.052C473.003 238.84 473.178 238.648 473.386 238.474C473.597 238.301 473.836 238.163 474.103 238.062C473.709 237.841 473.396 237.56 473.164 237.217C472.931 236.87 472.814 236.487 472.814 236.068C472.814 235.734 472.878 235.425 473.005 235.142C473.136 234.858 473.316 234.613 473.544 234.405C473.773 234.198 474.044 234.037 474.357 233.923C474.67 233.804 475.009 233.745 475.373 233.745C475.741 233.745 476.081 233.804 476.395 233.923C476.708 234.041 476.979 234.204 477.207 234.412C477.436 234.619 477.613 234.864 477.74 235.148C477.867 235.431 477.931 235.738 477.931 236.068C477.931 236.487 477.814 236.87 477.582 237.217C477.349 237.56 477.04 237.841 476.655 238.062C476.917 238.163 477.152 238.301 477.359 238.474C477.567 238.648 477.74 238.84 477.88 239.052C478.024 239.263 478.134 239.492 478.21 239.737C478.286 239.979 478.324 240.22 478.324 240.461C478.324 240.859 478.252 241.223 478.108 241.553C477.965 241.883 477.761 242.166 477.499 242.403C477.241 242.636 476.93 242.818 476.566 242.949C476.206 243.08 475.808 243.146 475.373 243.146C474.941 243.146 474.545 243.08 474.186 242.949C473.826 242.818 473.515 242.636 473.252 242.403C472.99 242.166 472.785 241.883 472.637 241.553C472.493 241.223 472.421 240.859 472.421 240.461ZM473.551 240.372C473.551 240.656 473.593 240.912 473.678 241.14C473.767 241.369 473.889 241.563 474.046 241.724C474.207 241.885 474.399 242.01 474.624 242.099C474.852 242.183 475.104 242.226 475.379 242.226C475.646 242.226 475.891 242.181 476.115 242.092C476.34 242.003 476.532 241.879 476.693 241.718C476.858 241.557 476.985 241.362 477.074 241.134C477.167 240.905 477.213 240.651 477.213 240.372C477.213 240.118 477.169 239.881 477.08 239.661C476.995 239.437 476.873 239.24 476.712 239.071C476.551 238.902 476.359 238.768 476.134 238.671C475.91 238.574 475.658 238.525 475.379 238.525C475.117 238.525 474.873 238.571 474.649 238.665C474.429 238.753 474.236 238.88 474.071 239.045C473.91 239.206 473.784 239.401 473.69 239.629C473.597 239.854 473.551 240.101 473.551 240.372ZM473.875 236.151C473.875 236.367 473.913 236.568 473.989 236.754C474.069 236.936 474.177 237.097 474.312 237.236C474.452 237.372 474.613 237.48 474.795 237.56C474.977 237.636 475.172 237.674 475.379 237.674C475.586 237.674 475.781 237.634 475.963 237.554C476.149 237.473 476.31 237.365 476.445 237.23C476.581 237.09 476.689 236.93 476.769 236.748C476.849 236.561 476.89 236.362 476.89 236.151C476.89 235.931 476.849 235.728 476.769 235.542C476.693 235.355 476.587 235.194 476.452 235.059C476.316 234.924 476.155 234.818 475.969 234.742C475.787 234.661 475.59 234.621 475.379 234.621C475.155 234.621 474.949 234.661 474.763 234.742C474.581 234.822 474.423 234.932 474.287 235.072C474.156 235.207 474.054 235.368 473.982 235.554C473.91 235.74 473.875 235.939 473.875 236.151Z" fill="#727272"/>
<path d="M392.049 281.423C392.049 281.833 391.971 282.208 391.814 282.546C391.662 282.881 391.444 283.168 391.161 283.41C390.881 283.647 390.545 283.831 390.151 283.962C389.758 284.093 389.324 284.159 388.85 284.159C387.983 284.159 387.293 283.994 386.781 283.664V282.546C387.394 283.029 388.097 283.27 388.888 283.27C389.206 283.27 389.491 283.23 389.745 283.149C390.003 283.069 390.223 282.953 390.405 282.8C390.591 282.648 390.733 282.464 390.831 282.248C390.932 282.032 390.983 281.789 390.983 281.518C390.983 280.329 390.137 279.734 388.444 279.734H387.688V278.852H388.406C389.904 278.852 390.653 278.293 390.653 277.176C390.653 276.144 390.082 275.627 388.939 275.627C388.296 275.627 387.693 275.843 387.13 276.275V275.266C387.71 274.919 388.399 274.745 389.199 274.745C389.58 274.745 389.925 274.798 390.234 274.904C390.543 275.01 390.807 275.158 391.027 275.348C391.247 275.539 391.417 275.767 391.535 276.034C391.658 276.3 391.719 276.594 391.719 276.916C391.719 278.114 391.114 278.884 389.904 279.227V279.252C390.213 279.286 390.498 279.362 390.761 279.48C391.023 279.595 391.25 279.745 391.44 279.931C391.63 280.117 391.778 280.337 391.884 280.591C391.994 280.841 392.049 281.118 392.049 281.423ZM393.579 281.461C393.579 281.22 393.617 280.979 393.693 280.737C393.77 280.492 393.877 280.263 394.017 280.052C394.161 279.84 394.337 279.648 394.544 279.474C394.756 279.301 394.995 279.163 395.261 279.062C394.868 278.841 394.555 278.56 394.322 278.217C394.089 277.87 393.973 277.487 393.973 277.068C393.973 276.734 394.036 276.425 394.163 276.142C394.294 275.858 394.474 275.613 394.703 275.405C394.931 275.198 395.202 275.037 395.515 274.923C395.828 274.804 396.167 274.745 396.531 274.745C396.899 274.745 397.24 274.804 397.553 274.923C397.866 275.041 398.137 275.204 398.365 275.412C398.594 275.619 398.771 275.864 398.898 276.148C399.025 276.431 399.089 276.738 399.089 277.068C399.089 277.487 398.972 277.87 398.74 278.217C398.507 278.56 398.198 278.841 397.813 279.062C398.075 279.163 398.31 279.301 398.518 279.474C398.725 279.648 398.898 279.84 399.038 280.052C399.182 280.263 399.292 280.492 399.368 280.737C399.444 280.979 399.482 281.22 399.482 281.461C399.482 281.859 399.41 282.223 399.267 282.553C399.123 282.883 398.92 283.166 398.657 283.403C398.399 283.636 398.088 283.818 397.724 283.949C397.364 284.08 396.967 284.146 396.531 284.146C396.099 284.146 395.703 284.08 395.344 283.949C394.984 283.818 394.673 283.636 394.411 283.403C394.148 283.166 393.943 282.883 393.795 282.553C393.651 282.223 393.579 281.859 393.579 281.461ZM394.709 281.372C394.709 281.656 394.751 281.912 394.836 282.14C394.925 282.369 395.048 282.563 395.204 282.724C395.365 282.885 395.557 283.01 395.782 283.099C396.01 283.183 396.262 283.226 396.537 283.226C396.804 283.226 397.049 283.181 397.273 283.092C397.498 283.003 397.69 282.879 397.851 282.718C398.016 282.557 398.143 282.362 398.232 282.134C398.325 281.905 398.372 281.651 398.372 281.372C398.372 281.118 398.327 280.881 398.238 280.661C398.154 280.437 398.031 280.24 397.87 280.071C397.709 279.902 397.517 279.768 397.292 279.671C397.068 279.574 396.816 279.525 396.537 279.525C396.275 279.525 396.031 279.571 395.807 279.665C395.587 279.753 395.395 279.88 395.229 280.045C395.069 280.206 394.942 280.401 394.849 280.629C394.756 280.854 394.709 281.101 394.709 281.372ZM395.033 277.151C395.033 277.367 395.071 277.568 395.147 277.754C395.227 277.936 395.335 278.097 395.471 278.236C395.61 278.372 395.771 278.48 395.953 278.56C396.135 278.636 396.33 278.674 396.537 278.674C396.744 278.674 396.939 278.634 397.121 278.554C397.307 278.473 397.468 278.365 397.604 278.23C397.739 278.09 397.847 277.93 397.927 277.748C398.008 277.561 398.048 277.362 398.048 277.151C398.048 276.931 398.008 276.728 397.927 276.542C397.851 276.355 397.745 276.194 397.61 276.059C397.474 275.924 397.314 275.818 397.127 275.742C396.945 275.661 396.749 275.621 396.537 275.621C396.313 275.621 396.108 275.661 395.921 275.742C395.739 275.822 395.581 275.932 395.445 276.072C395.314 276.207 395.213 276.368 395.141 276.554C395.069 276.74 395.033 276.939 395.033 277.151ZM402.021 282.553L401.006 285.676H400.263L401.006 282.553H402.021ZM409.309 279.411C409.309 280.172 409.239 280.847 409.099 281.436C408.964 282.024 408.765 282.521 408.502 282.927C408.244 283.329 407.925 283.636 407.544 283.848C407.167 284.055 406.738 284.159 406.255 284.159C405.798 284.159 405.39 284.059 405.03 283.86C404.675 283.657 404.374 283.363 404.129 282.978C403.883 282.593 403.697 282.121 403.57 281.562C403.443 281 403.38 280.356 403.38 279.633C403.38 278.837 403.445 278.135 403.577 277.525C403.712 276.916 403.909 276.406 404.167 275.996C404.425 275.581 404.745 275.27 405.125 275.062C405.511 274.851 405.951 274.745 406.446 274.745C408.354 274.745 409.309 276.3 409.309 279.411ZM408.242 279.512C408.242 276.922 407.626 275.627 406.395 275.627C405.096 275.627 404.446 276.946 404.446 279.582C404.446 282.041 405.083 283.27 406.357 283.27C407.614 283.27 408.242 282.017 408.242 279.512ZM416.215 278.903C416.215 279.736 416.132 280.479 415.967 281.131C415.802 281.778 415.561 282.328 415.244 282.781C414.926 283.23 414.539 283.573 414.082 283.81C413.625 284.042 413.104 284.159 412.521 284.159C411.92 284.159 411.391 284.053 410.934 283.841V282.845C411.437 283.128 411.975 283.27 412.546 283.27C412.956 283.27 413.322 283.185 413.644 283.016C413.97 282.847 414.245 282.601 414.469 282.28C414.694 281.954 414.865 281.554 414.983 281.08C415.102 280.606 415.161 280.062 415.161 279.449H415.136C414.746 280.232 414.069 280.623 413.104 280.623C412.715 280.623 412.358 280.555 412.032 280.42C411.706 280.28 411.424 280.086 411.188 279.836C410.951 279.582 410.766 279.282 410.635 278.935C410.504 278.588 410.438 278.205 410.438 277.786C410.438 277.337 410.51 276.927 410.654 276.554C410.802 276.182 411.006 275.862 411.264 275.596C411.526 275.325 411.835 275.115 412.19 274.967C412.55 274.819 412.942 274.745 413.365 274.745C413.822 274.745 414.226 274.838 414.577 275.024C414.933 275.206 415.231 275.475 415.472 275.831C415.713 276.182 415.897 276.616 416.024 277.132C416.151 277.648 416.215 278.238 416.215 278.903ZM415.091 277.97C415.091 277.618 415.045 277.299 414.952 277.011C414.863 276.723 414.738 276.478 414.577 276.275C414.416 276.068 414.224 275.909 414 275.799C413.779 275.685 413.538 275.627 413.276 275.627C413.026 275.627 412.793 275.678 412.578 275.78C412.362 275.877 412.174 276.017 412.013 276.199C411.856 276.376 411.731 276.59 411.638 276.84C411.549 277.085 411.505 277.354 411.505 277.646C411.505 277.968 411.547 278.255 411.632 278.509C411.721 278.763 411.846 278.979 412.006 279.157C412.167 279.33 412.36 279.464 412.584 279.557C412.812 279.65 413.064 279.696 413.339 279.696C413.581 279.696 413.807 279.652 414.019 279.563C414.234 279.47 414.421 279.347 414.577 279.195C414.738 279.038 414.863 278.856 414.952 278.649C415.045 278.437 415.091 278.211 415.091 277.97ZM423.261 275.5C423.121 275.742 422.952 276.042 422.753 276.402C422.558 276.762 422.351 277.166 422.131 277.614C421.911 278.063 421.687 278.545 421.458 279.062C421.229 279.578 421.016 280.111 420.817 280.661C420.618 281.211 420.442 281.77 420.29 282.337C420.142 282.9 420.034 283.454 419.966 284H418.849C418.925 283.458 419.042 282.906 419.198 282.343C419.359 281.776 419.539 281.222 419.738 280.68C419.941 280.134 420.155 279.61 420.379 279.106C420.603 278.602 420.821 278.139 421.033 277.716C421.244 277.293 421.437 276.92 421.61 276.599C421.788 276.273 421.93 276.019 422.036 275.837H417.472V274.897H423.261V275.5Z" fill="#727272"/>
<path d="M260.244 319.296C260.244 319.055 260.282 318.814 260.358 318.573C260.434 318.327 260.542 318.099 260.682 317.887C260.826 317.676 261.001 317.483 261.209 317.31C261.42 317.136 261.659 316.999 261.926 316.897C261.532 316.677 261.219 316.396 260.987 316.053C260.754 315.706 260.637 315.323 260.637 314.904C260.637 314.569 260.701 314.261 260.828 313.977C260.959 313.694 261.139 313.448 261.367 313.241C261.596 313.033 261.867 312.873 262.18 312.758C262.493 312.64 262.832 312.581 263.196 312.581C263.564 312.581 263.904 312.64 264.217 312.758C264.531 312.877 264.801 313.04 265.03 313.247C265.259 313.454 265.436 313.7 265.563 313.983C265.69 314.267 265.754 314.574 265.754 314.904C265.754 315.323 265.637 315.706 265.405 316.053C265.172 316.396 264.863 316.677 264.478 316.897C264.74 316.999 264.975 317.136 265.182 317.31C265.39 317.483 265.563 317.676 265.703 317.887C265.847 318.099 265.957 318.327 266.033 318.573C266.109 318.814 266.147 319.055 266.147 319.296C266.147 319.694 266.075 320.058 265.931 320.388C265.787 320.718 265.584 321.002 265.322 321.239C265.064 321.472 264.753 321.653 264.389 321.785C264.029 321.916 263.631 321.981 263.196 321.981C262.764 321.981 262.368 321.916 262.009 321.785C261.649 321.653 261.338 321.472 261.075 321.239C260.813 321.002 260.608 320.718 260.46 320.388C260.316 320.058 260.244 319.694 260.244 319.296ZM261.374 319.208C261.374 319.491 261.416 319.747 261.501 319.976C261.59 320.204 261.712 320.399 261.869 320.56C262.03 320.72 262.222 320.845 262.447 320.934C262.675 321.019 262.927 321.061 263.202 321.061C263.468 321.061 263.714 321.017 263.938 320.928C264.162 320.839 264.355 320.714 264.516 320.553C264.681 320.392 264.808 320.198 264.897 319.969C264.99 319.741 265.036 319.487 265.036 319.208C265.036 318.954 264.992 318.717 264.903 318.497C264.818 318.272 264.696 318.076 264.535 317.906C264.374 317.737 264.182 317.604 263.957 317.506C263.733 317.409 263.481 317.36 263.202 317.36C262.94 317.36 262.696 317.407 262.472 317.5C262.252 317.589 262.059 317.716 261.894 317.881C261.733 318.042 261.606 318.236 261.513 318.465C261.42 318.689 261.374 318.937 261.374 319.208ZM261.697 314.986C261.697 315.202 261.736 315.403 261.812 315.589C261.892 315.771 262 315.932 262.135 316.072C262.275 316.207 262.436 316.315 262.618 316.396C262.8 316.472 262.995 316.51 263.202 316.51C263.409 316.51 263.604 316.47 263.786 316.389C263.972 316.309 264.133 316.201 264.268 316.065C264.404 315.926 264.512 315.765 264.592 315.583C264.672 315.397 264.713 315.198 264.713 314.986C264.713 314.766 264.672 314.563 264.592 314.377C264.516 314.191 264.41 314.03 264.275 313.895C264.139 313.759 263.978 313.653 263.792 313.577C263.61 313.497 263.413 313.457 263.202 313.457C262.978 313.457 262.772 313.497 262.586 313.577C262.404 313.658 262.245 313.768 262.11 313.907C261.979 314.043 261.877 314.203 261.805 314.39C261.733 314.576 261.697 314.775 261.697 314.986ZM268.686 320.388L267.671 323.511H266.928L267.671 320.388H268.686ZM270.07 319.296C270.07 319.055 270.108 318.814 270.184 318.573C270.26 318.327 270.368 318.099 270.508 317.887C270.652 317.676 270.828 317.483 271.035 317.31C271.246 317.136 271.486 316.999 271.752 316.897C271.359 316.677 271.045 316.396 270.813 316.053C270.58 315.706 270.464 315.323 270.464 314.904C270.464 314.569 270.527 314.261 270.654 313.977C270.785 313.694 270.965 313.448 271.194 313.241C271.422 313.033 271.693 312.873 272.006 312.758C272.319 312.64 272.658 312.581 273.022 312.581C273.39 312.581 273.731 312.64 274.044 312.758C274.357 312.877 274.628 313.04 274.856 313.247C275.085 313.454 275.262 313.7 275.389 313.983C275.516 314.267 275.58 314.574 275.58 314.904C275.58 315.323 275.463 315.706 275.231 316.053C274.998 316.396 274.689 316.677 274.304 316.897C274.566 316.999 274.801 317.136 275.009 317.31C275.216 317.483 275.389 317.676 275.529 317.887C275.673 318.099 275.783 318.327 275.859 318.573C275.935 318.814 275.973 319.055 275.973 319.296C275.973 319.694 275.901 320.058 275.758 320.388C275.614 320.718 275.411 321.002 275.148 321.239C274.89 321.472 274.579 321.653 274.215 321.785C273.855 321.916 273.458 321.981 273.022 321.981C272.59 321.981 272.194 321.916 271.835 321.785C271.475 321.653 271.164 321.472 270.902 321.239C270.639 321.002 270.434 320.718 270.286 320.388C270.142 320.058 270.07 319.694 270.07 319.296ZM271.2 319.208C271.2 319.491 271.242 319.747 271.327 319.976C271.416 320.204 271.538 320.399 271.695 320.56C271.856 320.72 272.048 320.845 272.273 320.934C272.501 321.019 272.753 321.061 273.028 321.061C273.295 321.061 273.54 321.017 273.764 320.928C273.989 320.839 274.181 320.714 274.342 320.553C274.507 320.392 274.634 320.198 274.723 319.969C274.816 319.741 274.863 319.487 274.863 319.208C274.863 318.954 274.818 318.717 274.729 318.497C274.645 318.272 274.522 318.076 274.361 317.906C274.2 317.737 274.008 317.604 273.783 317.506C273.559 317.409 273.307 317.36 273.028 317.36C272.766 317.36 272.522 317.407 272.298 317.5C272.078 317.589 271.885 317.716 271.72 317.881C271.56 318.042 271.433 318.236 271.34 318.465C271.246 318.689 271.2 318.937 271.2 319.208ZM271.524 314.986C271.524 315.202 271.562 315.403 271.638 315.589C271.718 315.771 271.826 315.932 271.962 316.072C272.101 316.207 272.262 316.315 272.444 316.396C272.626 316.472 272.821 316.51 273.028 316.51C273.235 316.51 273.43 316.47 273.612 316.389C273.798 316.309 273.959 316.201 274.094 316.065C274.23 315.926 274.338 315.765 274.418 315.583C274.499 315.397 274.539 315.198 274.539 314.986C274.539 314.766 274.499 314.563 274.418 314.377C274.342 314.191 274.236 314.03 274.101 313.895C273.965 313.759 273.805 313.653 273.618 313.577C273.436 313.497 273.24 313.457 273.028 313.457C272.804 313.457 272.599 313.497 272.412 313.577C272.23 313.658 272.072 313.768 271.936 313.907C271.805 314.043 271.704 314.203 271.632 314.39C271.56 314.576 271.524 314.775 271.524 314.986ZM282.918 313.336C282.778 313.577 282.609 313.878 282.41 314.237C282.215 314.597 282.008 315.001 281.788 315.45C281.568 315.898 281.343 316.381 281.115 316.897C280.886 317.413 280.673 317.946 280.474 318.497C280.275 319.047 280.099 319.605 279.947 320.172C279.799 320.735 279.691 321.29 279.623 321.835H278.506C278.582 321.294 278.699 320.742 278.855 320.179C279.016 319.612 279.196 319.057 279.395 318.516C279.598 317.97 279.812 317.445 280.036 316.941C280.26 316.438 280.478 315.974 280.69 315.551C280.901 315.128 281.094 314.756 281.267 314.434C281.445 314.108 281.587 313.854 281.693 313.672H277.129V312.733H282.918V313.336ZM290.002 318.947C290.002 319.392 289.93 319.8 289.786 320.172C289.642 320.545 289.443 320.866 289.189 321.137C288.935 321.408 288.633 321.62 288.281 321.772C287.93 321.92 287.549 321.994 287.139 321.994C286.682 321.994 286.271 321.899 285.907 321.708C285.548 321.518 285.241 321.245 284.987 320.89C284.737 320.53 284.547 320.092 284.416 319.576C284.285 319.059 284.219 318.478 284.219 317.83C284.219 317.039 284.306 316.321 284.479 315.678C284.657 315.031 284.907 314.479 285.228 314.021C285.554 313.56 285.946 313.205 286.403 312.955C286.86 312.705 287.37 312.581 287.932 312.581C288.559 312.581 289.062 312.667 289.443 312.841V313.825C288.973 313.583 288.478 313.463 287.958 313.463C287.551 313.463 287.185 313.554 286.86 313.736C286.534 313.918 286.254 314.176 286.022 314.51C285.789 314.84 285.609 315.24 285.482 315.71C285.359 316.18 285.298 316.702 285.298 317.278H285.323C285.742 316.52 286.434 316.142 287.399 316.142C287.797 316.142 288.155 316.209 288.472 316.345C288.794 316.48 289.066 316.673 289.291 316.922C289.519 317.168 289.695 317.462 289.818 317.805C289.94 318.147 290.002 318.528 290.002 318.947ZM288.935 319.081C288.935 318.763 288.895 318.478 288.815 318.224C288.734 317.97 288.618 317.754 288.466 317.576C288.317 317.398 288.133 317.263 287.913 317.17C287.693 317.073 287.444 317.024 287.164 317.024C286.906 317.024 286.667 317.073 286.447 317.17C286.227 317.267 286.037 317.401 285.876 317.57C285.715 317.735 285.588 317.93 285.495 318.154C285.406 318.374 285.362 318.609 285.362 318.858C285.362 319.172 285.406 319.466 285.495 319.741C285.584 320.012 285.709 320.249 285.869 320.452C286.03 320.655 286.221 320.816 286.441 320.934C286.665 321.048 286.912 321.105 287.183 321.105C287.446 321.105 287.685 321.057 287.901 320.959C288.116 320.858 288.301 320.718 288.453 320.541C288.605 320.363 288.724 320.151 288.808 319.906C288.893 319.656 288.935 319.381 288.935 319.081Z" fill="#727272"/>
<path d="M191.396 355.897V361.909H192.563V362.861H191.396V365H190.367V362.861H186.089V361.959C186.487 361.511 186.889 361.033 187.295 360.525C187.701 360.013 188.088 359.494 188.457 358.97C188.829 358.445 189.172 357.922 189.485 357.402C189.802 356.877 190.069 356.376 190.285 355.897H191.396ZM187.263 361.909H190.367V357.453C190.05 358.007 189.749 358.502 189.466 358.938C189.182 359.374 188.911 359.77 188.653 360.125C188.399 360.48 188.156 360.802 187.923 361.09C187.691 361.378 187.471 361.651 187.263 361.909ZM195.014 363.553L193.998 366.676H193.255L193.998 363.553H195.014ZM200.422 365H199.381V357.135C199.3 357.216 199.182 357.309 199.025 357.415C198.873 357.516 198.7 357.618 198.505 357.719C198.314 357.821 198.111 357.916 197.896 358.005C197.684 358.094 197.477 358.164 197.273 358.214V357.161C197.502 357.097 197.743 357.013 197.997 356.907C198.255 356.797 198.507 356.676 198.752 356.545C199.002 356.41 199.237 356.27 199.457 356.126C199.677 355.978 199.868 355.834 200.028 355.694H200.422V365ZM208.229 355.897V361.909H209.397V362.861H208.229V365H207.201V362.861H202.923V361.959C203.321 361.511 203.723 361.033 204.129 360.525C204.535 360.013 204.922 359.494 205.291 358.97C205.663 358.445 206.006 357.922 206.319 357.402C206.636 356.877 206.903 356.376 207.119 355.897H208.229ZM204.097 361.909H207.201V357.453C206.884 358.007 206.583 358.502 206.3 358.938C206.016 359.374 205.745 359.77 205.487 360.125C205.233 360.48 204.99 360.802 204.757 361.09C204.525 361.378 204.305 361.651 204.097 361.909ZM215.891 362.423C215.891 362.833 215.813 363.208 215.656 363.546C215.504 363.881 215.286 364.168 215.002 364.41C214.723 364.647 214.387 364.831 213.993 364.962C213.6 365.093 213.166 365.159 212.692 365.159C211.824 365.159 211.135 364.994 210.623 364.664V363.546C211.236 364.029 211.939 364.27 212.73 364.27C213.047 364.27 213.333 364.23 213.587 364.149C213.845 364.069 214.065 363.953 214.247 363.8C214.433 363.648 214.575 363.464 214.672 363.248C214.774 363.032 214.825 362.789 214.825 362.518C214.825 361.329 213.978 360.734 212.286 360.734H211.53V359.852H212.248C213.746 359.852 214.495 359.293 214.495 358.176C214.495 357.144 213.923 356.627 212.781 356.627C212.138 356.627 211.535 356.843 210.972 357.275V356.266C211.551 355.919 212.241 355.745 213.041 355.745C213.422 355.745 213.767 355.798 214.076 355.904C214.385 356.01 214.649 356.158 214.869 356.348C215.089 356.539 215.258 356.767 215.377 357.034C215.5 357.3 215.561 357.594 215.561 357.916C215.561 359.114 214.956 359.884 213.746 360.227V360.252C214.055 360.286 214.34 360.362 214.603 360.48C214.865 360.595 215.091 360.745 215.282 360.931C215.472 361.117 215.62 361.337 215.726 361.591C215.836 361.841 215.891 362.118 215.891 362.423Z" fill="#727272"/>
<path d="M57.8862 81.5752V80.125C58.0522 80.2715 58.25 80.4033 58.4795 80.5205C58.7139 80.6377 58.958 80.7378 59.2119 80.8208C59.4707 80.8989 59.7295 80.96 59.9883 81.0039C60.2471 81.0479 60.4863 81.0698 60.7061 81.0698C61.4629 81.0698 62.0269 80.9307 62.3979 80.6523C62.7739 80.3691 62.9619 79.9639 62.9619 79.4365C62.9619 79.1533 62.8984 78.9067 62.7715 78.6968C62.6494 78.4868 62.4785 78.2964 62.2588 78.1255C62.0391 77.9497 61.7778 77.7837 61.4751 77.6274C61.1772 77.4663 60.855 77.2979 60.5083 77.1221C60.1421 76.9365 59.8003 76.7485 59.4829 76.5581C59.1655 76.3677 58.8896 76.1577 58.6553 75.9282C58.4209 75.6987 58.2354 75.4399 58.0986 75.1519C57.9668 74.8589 57.9009 74.5171 57.9009 74.1265C57.9009 73.6479 58.0059 73.2329 58.2158 72.8813C58.4258 72.5249 58.7017 72.2319 59.0435 72.0024C59.3853 71.7729 59.7734 71.6021 60.208 71.4897C60.6475 71.3774 61.0942 71.3213 61.5483 71.3213C62.5835 71.3213 63.3379 71.4458 63.8115 71.6948V73.0791C63.1914 72.6494 62.3955 72.4346 61.4238 72.4346C61.1553 72.4346 60.8867 72.4639 60.6182 72.5225C60.3496 72.5762 60.1104 72.6665 59.9004 72.7935C59.6904 72.9204 59.5195 73.084 59.3877 73.2842C59.2559 73.4844 59.1899 73.7285 59.1899 74.0166C59.1899 74.2852 59.2388 74.5171 59.3364 74.7124C59.439 74.9077 59.5879 75.0859 59.7832 75.2471C59.9785 75.4082 60.2153 75.5645 60.4937 75.7158C60.7769 75.8672 61.1016 76.0332 61.4678 76.2139C61.8438 76.3994 62.2002 76.5947 62.5371 76.7998C62.874 77.0049 63.1694 77.2319 63.4233 77.481C63.6772 77.73 63.8774 78.0059 64.0239 78.3086C64.1753 78.6113 64.251 78.958 64.251 79.3486C64.251 79.8662 64.1484 80.3057 63.9434 80.667C63.7432 81.0234 63.4697 81.314 63.123 81.5386C62.7812 81.7632 62.3857 81.9243 61.9365 82.022C61.4873 82.1245 61.0137 82.1758 60.5156 82.1758C60.3496 82.1758 60.1445 82.1611 59.9004 82.1318C59.6562 82.1074 59.4072 82.0684 59.1533 82.0146C58.8994 81.9658 58.6577 81.9048 58.4282 81.8315C58.2036 81.7534 58.0229 81.668 57.8862 81.5752ZM71.5532 82H70.3521V80.8281H70.3228C69.8003 81.7266 69.0312 82.1758 68.0156 82.1758C67.2686 82.1758 66.6826 81.978 66.2578 81.5825C65.8379 81.187 65.6279 80.6621 65.6279 80.0078C65.6279 78.6064 66.4531 77.791 68.1035 77.5615L70.3521 77.2466C70.3521 75.9722 69.8369 75.335 68.8066 75.335C67.9033 75.335 67.0879 75.6426 66.3604 76.2578V75.0273C67.0977 74.5586 67.9473 74.3242 68.9092 74.3242C70.6719 74.3242 71.5532 75.2568 71.5532 77.1221V82ZM70.3521 78.2061L68.543 78.4551C67.9863 78.5332 67.5664 78.6724 67.2832 78.8726C67 79.0679 66.8584 79.417 66.8584 79.9199C66.8584 80.2861 66.9878 80.5864 67.2466 80.8208C67.5103 81.0503 67.8594 81.165 68.2939 81.165C68.8896 81.165 69.3804 80.9575 69.7661 80.5425C70.1567 80.1226 70.3521 79.5928 70.3521 78.9531V78.2061ZM74.4316 72.5957C74.2168 72.5957 74.0337 72.5225 73.8823 72.376C73.731 72.2295 73.6553 72.0439 73.6553 71.8193C73.6553 71.5947 73.731 71.4092 73.8823 71.2627C74.0337 71.1113 74.2168 71.0356 74.4316 71.0356C74.6514 71.0356 74.8369 71.1113 74.9883 71.2627C75.1445 71.4092 75.2227 71.5947 75.2227 71.8193C75.2227 72.0342 75.1445 72.2173 74.9883 72.3687C74.8369 72.52 74.6514 72.5957 74.4316 72.5957ZM75.0176 82H73.8164V74.5H75.0176V82ZM83.6748 82H82.4736V77.7227C82.4736 76.1309 81.8926 75.335 80.7305 75.335C80.1299 75.335 79.6318 75.562 79.2363 76.0161C78.8457 76.4653 78.6504 77.0342 78.6504 77.7227V82H77.4492V74.5H78.6504V75.7451H78.6797C79.2461 74.7979 80.0664 74.3242 81.1406 74.3242C81.9609 74.3242 82.5884 74.5903 83.0229 75.1226C83.4575 75.6499 83.6748 76.4141 83.6748 77.415V82ZM89.4243 81.9268C89.1411 82.083 88.7676 82.1611 88.3037 82.1611C86.9902 82.1611 86.3335 81.4287 86.3335 79.9639V75.5254H85.0444V74.5H86.3335V72.6689L87.5347 72.2808V74.5H89.4243V75.5254H87.5347V79.7515C87.5347 80.2544 87.6201 80.6133 87.791 80.8281C87.9619 81.043 88.2451 81.1504 88.6406 81.1504C88.9434 81.1504 89.2046 81.0674 89.4243 80.9014V81.9268ZM103.113 71.4971L99.2241 82H97.8691L94.0605 71.4971H95.4302L98.3379 79.8247C98.4307 80.0933 98.5015 80.4033 98.5503 80.7549H98.5796C98.6187 80.4619 98.6992 80.147 98.8213 79.8101L101.788 71.4971H103.113ZM105.076 72.5957C104.861 72.5957 104.678 72.5225 104.527 72.376C104.375 72.2295 104.3 72.0439 104.3 71.8193C104.3 71.5947 104.375 71.4092 104.527 71.2627C104.678 71.1113 104.861 71.0356 105.076 71.0356C105.296 71.0356 105.481 71.1113 105.633 71.2627C105.789 71.4092 105.867 71.5947 105.867 71.8193C105.867 72.0342 105.789 72.2173 105.633 72.3687C105.481 72.52 105.296 72.5957 105.076 72.5957ZM105.662 82H104.461V74.5H105.662V82ZM114.319 82H113.118V77.7227C113.118 76.1309 112.537 75.335 111.375 75.335C110.774 75.335 110.276 75.562 109.881 76.0161C109.49 76.4653 109.295 77.0342 109.295 77.7227V82H108.094V74.5H109.295V75.7451H109.324C109.891 74.7979 110.711 74.3242 111.785 74.3242C112.605 74.3242 113.233 74.5903 113.667 75.1226C114.102 75.6499 114.319 76.4141 114.319 77.415V82ZM121.702 81.6558C121.126 82.0024 120.442 82.1758 119.651 82.1758C118.582 82.1758 117.718 81.8291 117.059 81.1357C116.404 80.4375 116.077 79.5342 116.077 78.4258C116.077 77.1904 116.431 76.1992 117.139 75.4521C117.847 74.7002 118.792 74.3242 119.974 74.3242C120.633 74.3242 121.214 74.4463 121.717 74.6904V75.9209C121.16 75.5303 120.564 75.335 119.93 75.335C119.163 75.335 118.533 75.6108 118.04 76.1626C117.552 76.7095 117.308 77.4297 117.308 78.3232C117.308 79.2021 117.537 79.8955 117.996 80.4033C118.46 80.9111 119.08 81.165 119.856 81.165C120.511 81.165 121.126 80.9478 121.702 80.5132V81.6558ZM129.546 78.5503H124.251C124.271 79.3853 124.495 80.0298 124.925 80.4839C125.354 80.938 125.945 81.165 126.697 81.165C127.542 81.165 128.318 80.8867 129.026 80.3301V81.458C128.367 81.9365 127.496 82.1758 126.412 82.1758C125.352 82.1758 124.52 81.8364 123.914 81.1577C123.309 80.4741 123.006 79.5146 123.006 78.2793C123.006 77.1123 123.335 76.1626 123.995 75.4302C124.659 74.6929 125.481 74.3242 126.463 74.3242C127.444 74.3242 128.204 74.6416 128.741 75.2764C129.278 75.9111 129.546 76.7925 129.546 77.9204V78.5503ZM128.316 77.5322C128.311 76.8389 128.143 76.2993 127.811 75.9136C127.483 75.5278 127.027 75.335 126.441 75.335C125.875 75.335 125.394 75.5376 124.998 75.9429C124.603 76.3481 124.358 76.8779 124.266 77.5322H128.316ZM137.596 82H136.395V77.7227C136.395 76.1309 135.813 75.335 134.651 75.335C134.051 75.335 133.553 75.562 133.157 76.0161C132.767 76.4653 132.571 77.0342 132.571 77.7227V82H131.37V74.5H132.571V75.7451H132.601C133.167 74.7979 133.987 74.3242 135.062 74.3242C135.882 74.3242 136.509 74.5903 136.944 75.1226C137.378 75.6499 137.596 76.4141 137.596 77.415V82ZM143.345 81.9268C143.062 82.083 142.688 82.1611 142.225 82.1611C140.911 82.1611 140.254 81.4287 140.254 79.9639V75.5254H138.965V74.5H140.254V72.6689L141.456 72.2808V74.5H143.345V75.5254H141.456V79.7515C141.456 80.2544 141.541 80.6133 141.712 80.8281C141.883 81.043 142.166 81.1504 142.562 81.1504C142.864 81.1504 143.125 81.0674 143.345 80.9014V81.9268ZM157.356 82H155.994L154.881 79.0557H150.428L149.38 82H148.011L152.039 71.4971H153.313L157.356 82ZM154.478 77.9497L152.83 73.4746C152.776 73.3281 152.723 73.0938 152.669 72.7715H152.64C152.591 73.0693 152.535 73.3037 152.471 73.4746L150.838 77.9497H154.478ZM164.974 82H163.772V77.7227C163.772 76.1309 163.191 75.335 162.029 75.335C161.429 75.335 160.931 75.562 160.535 76.0161C160.145 76.4653 159.949 77.0342 159.949 77.7227V82H158.748V74.5H159.949V75.7451H159.979C160.545 74.7979 161.365 74.3242 162.439 74.3242C163.26 74.3242 163.887 74.5903 164.322 75.1226C164.756 75.6499 164.974 76.4141 164.974 77.415V82ZM173.646 82H172.444V80.7256H172.415C171.858 81.6924 170.999 82.1758 169.837 82.1758C168.895 82.1758 168.14 81.8413 167.574 81.1724C167.012 80.4985 166.731 79.583 166.731 78.4258C166.731 77.1855 167.044 76.1919 167.669 75.4448C168.294 74.6978 169.126 74.3242 170.167 74.3242C171.197 74.3242 171.946 74.7295 172.415 75.54H172.444V70.8965H173.646V82ZM172.444 78.6089V77.5029C172.444 76.8975 172.244 76.3848 171.844 75.9648C171.443 75.5449 170.936 75.335 170.32 75.335C169.588 75.335 169.012 75.6035 168.592 76.1406C168.172 76.6777 167.962 77.4199 167.962 78.3672C167.962 79.2314 168.162 79.915 168.562 80.418C168.968 80.916 169.51 81.165 170.188 81.165C170.857 81.165 171.399 80.9233 171.814 80.4399C172.234 79.9565 172.444 79.3462 172.444 78.6089ZM186.565 72.6104H183.533V82H182.303V72.6104H179.278V71.4971H186.565V72.6104ZM194.285 82H193.084V77.6787C193.084 76.1162 192.503 75.335 191.341 75.335C190.755 75.335 190.262 75.562 189.861 76.0161C189.461 76.4653 189.261 77.0439 189.261 77.752V82H188.06V70.8965H189.261V75.7451H189.29C189.866 74.7979 190.687 74.3242 191.751 74.3242C193.44 74.3242 194.285 75.3423 194.285 77.3784V82ZM202.583 78.5503H197.288C197.308 79.3853 197.532 80.0298 197.962 80.4839C198.392 80.938 198.982 81.165 199.734 81.165C200.579 81.165 201.355 80.8867 202.063 80.3301V81.458C201.404 81.9365 200.533 82.1758 199.449 82.1758C198.389 82.1758 197.557 81.8364 196.951 81.1577C196.346 80.4741 196.043 79.5146 196.043 78.2793C196.043 77.1123 196.373 76.1626 197.032 75.4302C197.696 74.6929 198.519 74.3242 199.5 74.3242C200.481 74.3242 201.241 74.6416 201.778 75.2764C202.315 75.9111 202.583 76.7925 202.583 77.9204V78.5503ZM201.353 77.5322C201.348 76.8389 201.18 76.2993 200.848 75.9136C200.521 75.5278 200.064 75.335 199.478 75.335C198.912 75.335 198.431 75.5376 198.035 75.9429C197.64 76.3481 197.396 76.8779 197.303 77.5322H201.353ZM216.536 81.2822C215.481 81.8779 214.31 82.1758 213.021 82.1758C211.521 82.1758 210.308 81.6924 209.38 80.7256C208.458 79.7588 207.996 78.4795 207.996 76.8877C207.996 75.2617 208.509 73.9287 209.534 72.8887C210.564 71.8438 211.868 71.3213 213.445 71.3213C214.588 71.3213 215.547 71.5068 216.324 71.8779V73.2402C215.474 72.7031 214.468 72.4346 213.306 72.4346C212.129 72.4346 211.165 72.8398 210.413 73.6504C209.661 74.4609 209.285 75.5107 209.285 76.7998C209.285 78.1279 209.634 79.1729 210.333 79.9346C211.031 80.6914 211.978 81.0698 213.174 81.0698C213.995 81.0698 214.705 80.9062 215.306 80.5791V77.6348H213.006V76.5215H216.536V81.2822ZM222.732 75.7158C222.522 75.5547 222.22 75.4741 221.824 75.4741C221.312 75.4741 220.882 75.7158 220.535 76.1992C220.193 76.6826 220.022 77.3418 220.022 78.1768V82H218.821V74.5H220.022V76.0454H220.052C220.223 75.5181 220.484 75.1079 220.835 74.8149C221.187 74.5171 221.58 74.3682 222.015 74.3682C222.327 74.3682 222.566 74.4023 222.732 74.4707V75.7158ZM230.064 78.5503H224.769C224.788 79.3853 225.013 80.0298 225.442 80.4839C225.872 80.938 226.463 81.165 227.215 81.165C228.06 81.165 228.836 80.8867 229.544 80.3301V81.458C228.885 81.9365 228.013 82.1758 226.929 82.1758C225.87 82.1758 225.037 81.8364 224.432 81.1577C223.826 80.4741 223.523 79.5146 223.523 78.2793C223.523 77.1123 223.853 76.1626 224.512 75.4302C225.176 74.6929 225.999 74.3242 226.98 74.3242C227.962 74.3242 228.721 74.6416 229.258 75.2764C229.795 75.9111 230.064 76.7925 230.064 77.9204V78.5503ZM228.833 77.5322C228.829 76.8389 228.66 76.2993 228.328 75.9136C228.001 75.5278 227.544 75.335 226.958 75.335C226.392 75.335 225.911 75.5376 225.516 75.9429C225.12 76.3481 224.876 76.8779 224.783 77.5322H228.833ZM238.113 82H236.912V77.7227C236.912 76.1309 236.331 75.335 235.169 75.335C234.568 75.335 234.07 75.562 233.675 76.0161C233.284 76.4653 233.089 77.0342 233.089 77.7227V82H231.888V74.5H233.089V75.7451H233.118C233.685 74.7979 234.505 74.3242 235.579 74.3242C236.399 74.3242 237.027 74.5903 237.461 75.1226C237.896 75.6499 238.113 76.4141 238.113 77.415V82ZM245.752 82H244.551V80.8281H244.522C244 81.7266 243.23 82.1758 242.215 82.1758C241.468 82.1758 240.882 81.978 240.457 81.5825C240.037 81.187 239.827 80.6621 239.827 80.0078C239.827 78.6064 240.652 77.791 242.303 77.5615L244.551 77.2466C244.551 75.9722 244.036 75.335 243.006 75.335C242.103 75.335 241.287 75.6426 240.56 76.2578V75.0273C241.297 74.5586 242.146 74.3242 243.108 74.3242C244.871 74.3242 245.752 75.2568 245.752 77.1221V82ZM244.551 78.2061L242.742 78.4551C242.186 78.5332 241.766 78.6724 241.482 78.8726C241.199 79.0679 241.058 79.417 241.058 79.9199C241.058 80.2861 241.187 80.5864 241.446 80.8208C241.709 81.0503 242.059 81.165 242.493 81.165C243.089 81.165 243.58 80.9575 243.965 80.5425C244.356 80.1226 244.551 79.5928 244.551 78.9531V78.2061ZM254.417 82H253.216V80.7256H253.187C252.63 81.6924 251.771 82.1758 250.608 82.1758C249.666 82.1758 248.912 81.8413 248.345 81.1724C247.784 80.4985 247.503 79.583 247.503 78.4258C247.503 77.1855 247.815 76.1919 248.44 75.4448C249.065 74.6978 249.898 74.3242 250.938 74.3242C251.968 74.3242 252.718 74.7295 253.187 75.54H253.216V70.8965H254.417V82ZM253.216 78.6089V77.5029C253.216 76.8975 253.016 76.3848 252.615 75.9648C252.215 75.5449 251.707 75.335 251.092 75.335C250.359 75.335 249.783 75.6035 249.363 76.1406C248.943 76.6777 248.733 77.4199 248.733 78.3672C248.733 79.2314 248.934 79.915 249.334 80.418C249.739 80.916 250.281 81.165 250.96 81.165C251.629 81.165 252.171 80.9233 252.586 80.4399C253.006 79.9565 253.216 79.3462 253.216 78.6089ZM257.464 72.5957C257.249 72.5957 257.066 72.5225 256.915 72.376C256.763 72.2295 256.688 72.0439 256.688 71.8193C256.688 71.5947 256.763 71.4092 256.915 71.2627C257.066 71.1113 257.249 71.0356 257.464 71.0356C257.684 71.0356 257.869 71.1113 258.021 71.2627C258.177 71.4092 258.255 71.5947 258.255 71.8193C258.255 72.0342 258.177 72.2173 258.021 72.3687C257.869 72.52 257.684 72.5957 257.464 72.5957ZM258.05 82H256.849V74.5H258.05V82ZM266.707 82H265.506V77.7227C265.506 76.1309 264.925 75.335 263.763 75.335C263.162 75.335 262.664 75.562 262.269 76.0161C261.878 76.4653 261.683 77.0342 261.683 77.7227V82H260.481V74.5H261.683V75.7451H261.712C262.278 74.7979 263.099 74.3242 264.173 74.3242C264.993 74.3242 265.621 74.5903 266.055 75.1226C266.49 75.6499 266.707 76.4141 266.707 77.415V82ZM275.005 78.5503H269.71C269.729 79.3853 269.954 80.0298 270.384 80.4839C270.813 80.938 271.404 81.165 272.156 81.165C273.001 81.165 273.777 80.8867 274.485 80.3301V81.458C273.826 81.9365 272.955 82.1758 271.871 82.1758C270.811 82.1758 269.979 81.8364 269.373 81.1577C268.768 80.4741 268.465 79.5146 268.465 78.2793C268.465 77.1123 268.794 76.1626 269.454 75.4302C270.118 74.6929 270.94 74.3242 271.922 74.3242C272.903 74.3242 273.663 74.6416 274.2 75.2764C274.737 75.9111 275.005 76.7925 275.005 77.9204V78.5503ZM273.775 77.5322C273.77 76.8389 273.602 76.2993 273.27 75.9136C272.942 75.5278 272.486 75.335 271.9 75.335C271.333 75.335 270.853 75.5376 270.457 75.9429C270.062 76.3481 269.817 76.8779 269.725 77.5322H273.775ZM276.375 81.729V80.4399C277.029 80.9233 277.75 81.165 278.536 81.165C279.59 81.165 280.118 80.8135 280.118 80.1104C280.118 79.9102 280.071 79.7417 279.979 79.605C279.891 79.4634 279.769 79.3389 279.612 79.2314C279.461 79.124 279.28 79.0288 279.07 78.9458C278.865 78.8579 278.643 78.7676 278.404 78.6748C278.072 78.543 277.779 78.4111 277.525 78.2793C277.276 78.1426 277.066 77.9912 276.895 77.8252C276.729 77.6543 276.602 77.4614 276.514 77.2466C276.431 77.0317 276.39 76.7803 276.39 76.4922C276.39 76.1406 276.47 75.8306 276.631 75.562C276.792 75.2886 277.007 75.0615 277.276 74.8809C277.544 74.6953 277.85 74.5562 278.191 74.4634C278.538 74.3706 278.895 74.3242 279.261 74.3242C279.91 74.3242 280.491 74.4365 281.004 74.6611V75.877C280.452 75.5156 279.817 75.335 279.1 75.335C278.875 75.335 278.672 75.3618 278.492 75.4155C278.311 75.4644 278.155 75.5352 278.023 75.6279C277.896 75.7207 277.796 75.833 277.723 75.9648C277.654 76.0918 277.62 76.2334 277.62 76.3896C277.62 76.585 277.654 76.7485 277.723 76.8804C277.796 77.0122 277.901 77.1294 278.038 77.2319C278.174 77.3345 278.34 77.4272 278.536 77.5103C278.731 77.5933 278.953 77.6836 279.202 77.7812C279.534 77.9082 279.832 78.04 280.096 78.1768C280.359 78.3086 280.584 78.46 280.77 78.6309C280.955 78.7969 281.097 78.9897 281.194 79.2095C281.297 79.4292 281.348 79.6904 281.348 79.9932C281.348 80.3643 281.265 80.6865 281.099 80.96C280.938 81.2334 280.721 81.4604 280.447 81.6411C280.174 81.8218 279.859 81.9561 279.502 82.0439C279.146 82.1318 278.772 82.1758 278.382 82.1758C277.61 82.1758 276.941 82.0269 276.375 81.729ZM64.5391 98.668C64.5391 98.2383 64.4707 97.8639 64.334 97.5449C64.2038 97.2259 64.0215 96.9622 63.7871 96.7539C63.5592 96.5391 63.2891 96.3796 62.9766 96.2754C62.6641 96.1712 62.3255 96.1191 61.9609 96.1191C61.6484 96.1191 61.3424 96.1615 61.043 96.2461C60.7435 96.3307 60.4505 96.4479 60.1641 96.5977C59.8841 96.7474 59.6107 96.9264 59.3438 97.1348C59.0833 97.3431 58.8392 97.5742 58.6113 97.8281V96.1094C59.0605 95.6732 59.5618 95.3411 60.1152 95.1133C60.6751 94.8789 61.3555 94.7617 62.1562 94.7617C62.7292 94.7617 63.2598 94.8464 63.748 95.0156C64.2363 95.1784 64.6595 95.4193 65.0176 95.7383C65.3757 96.0573 65.6556 96.4512 65.8574 96.9199C66.0658 97.3887 66.1699 97.9258 66.1699 98.5312C66.1699 99.0846 66.1048 99.5859 65.9746 100.035C65.8509 100.484 65.6589 100.908 65.3984 101.305C65.1445 101.702 64.8223 102.083 64.4316 102.447C64.041 102.812 63.582 103.183 63.0547 103.561C62.3971 104.029 61.8535 104.43 61.4238 104.762C61.0007 105.094 60.6621 105.406 60.4082 105.699C60.1608 105.986 59.985 106.275 59.8809 106.568C59.7832 106.855 59.7344 107.187 59.7344 107.564H66.707V109H58.0645V108.307C58.0645 107.708 58.1296 107.18 58.2598 106.725C58.39 106.269 58.6048 105.836 58.9043 105.426C59.2038 105.016 59.5944 104.605 60.0762 104.195C60.5645 103.785 61.1602 103.323 61.8633 102.809C62.3711 102.444 62.7943 102.096 63.1328 101.764C63.4779 101.432 63.7546 101.1 63.9629 100.768C64.1712 100.436 64.3177 100.1 64.4023 99.7617C64.4935 99.4167 64.5391 99.0521 64.5391 98.668ZM77.7422 101.939C77.7422 103.111 77.6348 104.15 77.4199 105.055C77.2116 105.96 76.9056 106.725 76.502 107.35C76.1048 107.968 75.6133 108.44 75.0273 108.766C74.4479 109.085 73.7871 109.244 73.0449 109.244C72.3418 109.244 71.7135 109.091 71.1602 108.785C70.6133 108.473 70.151 108.02 69.7734 107.428C69.3958 106.835 69.1094 106.109 68.9141 105.25C68.7188 104.384 68.6211 103.395 68.6211 102.281C68.6211 101.057 68.722 99.9766 68.9238 99.0391C69.1322 98.1016 69.4349 97.3171 69.832 96.6855C70.2292 96.0475 70.7207 95.569 71.3066 95.25C71.8991 94.9245 72.5762 94.7617 73.3379 94.7617C76.2741 94.7617 77.7422 97.1543 77.7422 101.939ZM76.1016 102.096C76.1016 98.1113 75.1543 96.1191 73.2598 96.1191C71.2611 96.1191 70.2617 98.1471 70.2617 102.203C70.2617 105.986 71.2415 107.877 73.2012 107.877C75.1348 107.877 76.1016 105.95 76.1016 102.096ZM88.4258 95.9238C88.2109 96.2949 87.9505 96.7572 87.6445 97.3105C87.3451 97.8639 87.026 98.4857 86.6875 99.1758C86.349 99.8659 86.0039 100.608 85.6523 101.402C85.3008 102.197 84.972 103.017 84.666 103.863C84.36 104.71 84.0898 105.569 83.8555 106.441C83.6276 107.307 83.4616 108.16 83.3574 109H81.6387C81.7559 108.167 81.9349 107.317 82.1758 106.451C82.4232 105.579 82.6999 104.726 83.0059 103.893C83.3184 103.053 83.6471 102.245 83.9922 101.471C84.3372 100.696 84.6725 99.9831 84.998 99.332C85.3236 98.681 85.6198 98.1081 85.8867 97.6133C86.1602 97.112 86.3783 96.7214 86.541 96.4414H79.5195V94.9961H88.4258V95.9238ZM92.4297 106.773L90.8672 111.578H89.7246L90.8672 106.773H92.4297ZM102.986 105.035C102.986 105.667 102.866 106.243 102.625 106.764C102.391 107.278 102.055 107.721 101.619 108.092C101.189 108.456 100.672 108.74 100.066 108.941C99.4609 109.143 98.7936 109.244 98.0645 109.244C96.7298 109.244 95.6686 108.99 94.8809 108.482V106.764C95.8249 107.506 96.9056 107.877 98.123 107.877C98.6113 107.877 99.0508 107.815 99.4414 107.691C99.8385 107.568 100.177 107.389 100.457 107.154C100.743 106.92 100.962 106.637 101.111 106.305C101.268 105.973 101.346 105.598 101.346 105.182C101.346 103.352 100.044 102.438 97.4395 102.438H96.2773V101.08H97.3809C99.6855 101.08 100.838 100.221 100.838 98.502C100.838 96.9134 99.959 96.1191 98.2012 96.1191C97.2116 96.1191 96.2839 96.4512 95.418 97.1152V95.5625C96.3099 95.0286 97.3711 94.7617 98.6016 94.7617C99.1875 94.7617 99.7181 94.8431 100.193 95.0059C100.669 95.1686 101.076 95.3965 101.414 95.6895C101.753 95.9824 102.013 96.334 102.195 96.7441C102.384 97.1543 102.479 97.6068 102.479 98.1016C102.479 99.944 101.548 101.129 99.6855 101.656V101.695C100.161 101.747 100.6 101.865 101.004 102.047C101.408 102.223 101.756 102.454 102.049 102.74C102.342 103.027 102.57 103.365 102.732 103.756C102.902 104.14 102.986 104.566 102.986 105.035ZM105.34 105.094C105.34 104.723 105.398 104.352 105.516 103.98C105.633 103.603 105.799 103.251 106.014 102.926C106.235 102.6 106.505 102.304 106.824 102.037C107.15 101.77 107.518 101.559 107.928 101.402C107.322 101.064 106.84 100.631 106.482 100.104C106.124 99.5697 105.945 98.9805 105.945 98.3359C105.945 97.8216 106.043 97.3464 106.238 96.9102C106.44 96.474 106.717 96.0964 107.068 95.7773C107.42 95.4583 107.837 95.2109 108.318 95.0352C108.8 94.8529 109.321 94.7617 109.881 94.7617C110.447 94.7617 110.971 94.8529 111.453 95.0352C111.935 95.2174 112.352 95.4681 112.703 95.7871C113.055 96.1061 113.328 96.4837 113.523 96.9199C113.719 97.3561 113.816 97.8281 113.816 98.3359C113.816 98.9805 113.637 99.5697 113.279 100.104C112.921 100.631 112.446 101.064 111.854 101.402C112.257 101.559 112.618 101.77 112.938 102.037C113.257 102.304 113.523 102.6 113.738 102.926C113.96 103.251 114.129 103.603 114.246 103.98C114.363 104.352 114.422 104.723 114.422 105.094C114.422 105.706 114.311 106.266 114.09 106.773C113.868 107.281 113.556 107.717 113.152 108.082C112.755 108.44 112.277 108.72 111.717 108.922C111.163 109.124 110.551 109.225 109.881 109.225C109.217 109.225 108.608 109.124 108.055 108.922C107.501 108.72 107.023 108.44 106.619 108.082C106.215 107.717 105.9 107.281 105.672 106.773C105.451 106.266 105.34 105.706 105.34 105.094ZM107.078 104.957C107.078 105.393 107.143 105.787 107.273 106.139C107.41 106.49 107.599 106.79 107.84 107.037C108.087 107.285 108.383 107.477 108.729 107.613C109.08 107.743 109.467 107.809 109.891 107.809C110.301 107.809 110.678 107.74 111.023 107.604C111.368 107.467 111.665 107.275 111.912 107.027C112.166 106.78 112.361 106.48 112.498 106.129C112.641 105.777 112.713 105.387 112.713 104.957C112.713 104.566 112.645 104.202 112.508 103.863C112.378 103.518 112.189 103.215 111.941 102.955C111.694 102.695 111.398 102.49 111.053 102.34C110.708 102.19 110.32 102.115 109.891 102.115C109.487 102.115 109.113 102.187 108.768 102.33C108.429 102.467 108.133 102.662 107.879 102.916C107.632 103.163 107.436 103.463 107.293 103.814C107.15 104.16 107.078 104.54 107.078 104.957ZM107.576 98.4629C107.576 98.7949 107.635 99.1042 107.752 99.3906C107.876 99.6706 108.042 99.918 108.25 100.133C108.465 100.341 108.712 100.507 108.992 100.631C109.272 100.748 109.572 100.807 109.891 100.807C110.21 100.807 110.509 100.745 110.789 100.621C111.076 100.497 111.323 100.331 111.531 100.123C111.74 99.9082 111.906 99.6608 112.029 99.3809C112.153 99.0944 112.215 98.7884 112.215 98.4629C112.215 98.1243 112.153 97.8118 112.029 97.5254C111.912 97.2389 111.749 96.9915 111.541 96.7832C111.333 96.5749 111.085 96.4121 110.799 96.2949C110.519 96.1712 110.216 96.1094 109.891 96.1094C109.546 96.1094 109.23 96.1712 108.943 96.2949C108.663 96.4186 108.419 96.5879 108.211 96.8027C108.009 97.0111 107.853 97.2585 107.742 97.5449C107.632 97.8314 107.576 98.1374 107.576 98.4629ZM116.121 105.094C116.121 104.723 116.18 104.352 116.297 103.98C116.414 103.603 116.58 103.251 116.795 102.926C117.016 102.6 117.286 102.304 117.605 102.037C117.931 101.77 118.299 101.559 118.709 101.402C118.104 101.064 117.622 100.631 117.264 100.104C116.906 99.5697 116.727 98.9805 116.727 98.3359C116.727 97.8216 116.824 97.3464 117.02 96.9102C117.221 96.474 117.498 96.0964 117.85 95.7773C118.201 95.4583 118.618 95.2109 119.1 95.0352C119.581 94.8529 120.102 94.7617 120.662 94.7617C121.229 94.7617 121.753 94.8529 122.234 95.0352C122.716 95.2174 123.133 95.4681 123.484 95.7871C123.836 96.1061 124.109 96.4837 124.305 96.9199C124.5 97.3561 124.598 97.8281 124.598 98.3359C124.598 98.9805 124.419 99.5697 124.061 100.104C123.702 100.631 123.227 101.064 122.635 101.402C123.038 101.559 123.4 101.77 123.719 102.037C124.038 102.304 124.305 102.6 124.52 102.926C124.741 103.251 124.91 103.603 125.027 103.98C125.145 104.352 125.203 104.723 125.203 105.094C125.203 105.706 125.092 106.266 124.871 106.773C124.65 107.281 124.337 107.717 123.934 108.082C123.536 108.44 123.058 108.72 122.498 108.922C121.945 109.124 121.333 109.225 120.662 109.225C119.998 109.225 119.389 109.124 118.836 108.922C118.283 108.72 117.804 108.44 117.4 108.082C116.997 107.717 116.681 107.281 116.453 106.773C116.232 106.266 116.121 105.706 116.121 105.094ZM117.859 104.957C117.859 105.393 117.924 105.787 118.055 106.139C118.191 106.49 118.38 106.79 118.621 107.037C118.868 107.285 119.165 107.477 119.51 107.613C119.861 107.743 120.249 107.809 120.672 107.809C121.082 107.809 121.46 107.74 121.805 107.604C122.15 107.467 122.446 107.275 122.693 107.027C122.947 106.78 123.143 106.48 123.279 106.129C123.423 105.777 123.494 105.387 123.494 104.957C123.494 104.566 123.426 104.202 123.289 103.863C123.159 103.518 122.97 103.215 122.723 102.955C122.475 102.695 122.179 102.49 121.834 102.34C121.489 102.19 121.102 102.115 120.672 102.115C120.268 102.115 119.894 102.187 119.549 102.33C119.21 102.467 118.914 102.662 118.66 102.916C118.413 103.163 118.217 103.463 118.074 103.814C117.931 104.16 117.859 104.54 117.859 104.957ZM118.357 98.4629C118.357 98.7949 118.416 99.1042 118.533 99.3906C118.657 99.6706 118.823 99.918 119.031 100.133C119.246 100.341 119.493 100.507 119.773 100.631C120.053 100.748 120.353 100.807 120.672 100.807C120.991 100.807 121.29 100.745 121.57 100.621C121.857 100.497 122.104 100.331 122.312 100.123C122.521 99.9082 122.687 99.6608 122.811 99.3809C122.934 99.0944 122.996 98.7884 122.996 98.4629C122.996 98.1243 122.934 97.8118 122.811 97.5254C122.693 97.2389 122.531 96.9915 122.322 96.7832C122.114 96.5749 121.867 96.4121 121.58 96.2949C121.3 96.1712 120.997 96.1094 120.672 96.1094C120.327 96.1094 120.011 96.1712 119.725 96.2949C119.445 96.4186 119.201 96.5879 118.992 96.8027C118.79 97.0111 118.634 97.2585 118.523 97.5449C118.413 97.8314 118.357 98.1374 118.357 98.4629Z" fill="black"/>
<defs>
<filter id="filter0_dd_18_857" x="0" y="0" width="746" height="458" filterUnits="userSpaceOnUse" color-interpolation-filters="sRGB">
<feFlood flood-opacity="0" result="BackgroundImageFix"/>
<feColorMatrix in="SourceAlpha" type="matrix" values="0 0 0 0 0 0 0 0 0 0 0 0 0 0 0 0 0 0 127 0" result="hardAlpha"/>
<feMorphology radius="3" operator="dilate" in="SourceAlpha" result="effect1_dropShadow_18_857"/>
<feOffset/>
<feGaussianBlur stdDeviation="17.5"/>
<feComposite in2="hardAlpha" operator="out"/>
<feColorMatrix type="matrix" values="0 0 0 0 0 0 0 0 0 0 0 0 0 0 0 0 0 0 0.05 0"/>
<feBlend mode="normal" in2="BackgroundImageFix" result="effect1_dropShadow_18_857"/>
<feColorMatrix in="SourceAlpha" type="matrix" values="0 0 0 0 0 0 0 0 0 0 0 0 0 0 0 0 0 0 127 0" result="hardAlpha"/>
<feOffset dy="4"/>
<feGaussianBlur stdDeviation="2"/>
<feComposite in2="hardAlpha" operator="out"/>
<feColorMatrix type="matrix" values="0 0 0 0 0 0 0 0 0 0 0 0 0 0 0 0 0 0 0.25 0"/>
<feBlend mode="normal" in2="effect1_dropShadow_18_857" result="effect2_dropShadow_18_857"/>
<feBlend mode="normal" in="SourceGraphic" in2="effect2_dropShadow_18_857" result="shape"/>
</filter>
</defs>
</svg>
