<svg width="132" height="22" viewBox="0 0 132 22" fill="none" xmlns="http://www.w3.org/2000/svg">
<path d="M2.662 0.0163845C0.00549993 0.0163845 0 1.32538 0 2.94788V21.2574H4.323C5.2305 21.2739 5.643 20.9439 5.6595 20.1189V11.5609H13.6015C13.7885 11.5609 13.904 11.4619 13.904 11.2749V9.12988H5.665V3.73988C5.665 2.78838 6.138 2.33738 7.084 2.33738H14.08C14.2835 2.33738 14.3495 2.20538 14.3495 2.06238V0.0163845H2.662ZM46.6455 0.0163845C46.035 0.0163845 45.562 0.302385 45.562 1.17138V15.7684C45.562 17.8419 44.7755 19.2444 42.4105 19.5799C40.8155 19.8054 38.6815 19.7449 37.752 19.7119V21.4939C37.752 21.6589 37.829 21.7799 38.0215 21.8239C38.159 21.8569 39.1655 21.9834 41.4315 21.9834C45.4025 21.9834 47.2285 21.1254 48.279 20.3774C50.2865 18.9309 51.0015 17.2149 51.0015 13.8214V0.0163845H46.6455ZM18.4305 0.0163845C17.6165 0.0163845 17.3635 0.401381 17.3635 1.11088V15.7299C17.3635 18.6889 18.7935 20.4929 21.8405 21.4114C24.387 22.1814 28.4955 22.1649 31.196 21.4279C33.231 20.8779 35.5245 19.3764 35.5245 15.7244V0.0163845H31.2895C30.3435 0.0163845 30.085 0.417885 30.085 1.09439V16.2084C30.085 17.8254 29.7385 18.6449 28.8255 19.1564C27.4945 19.8989 25.278 19.8879 23.969 19.1344C22.9955 18.5679 22.7975 17.5944 22.7975 16.2029V0.0163845H18.4305ZM69.6245 0.0163845C66.968 0.0163845 66.968 1.33088 66.968 2.94788V8.42038C66.968 8.53038 66.913 8.57988 66.869 8.62938L63.1455 11.5609H66.968V21.2574H71.291C72.193 21.2739 72.611 20.9439 72.622 20.1189V11.5609H80.564C80.751 11.5609 80.8665 11.4619 80.8665 11.2749V9.12988H72.622V3.73988C72.622 2.78838 73.1005 2.33738 74.041 2.33738H81.048C81.246 2.33738 81.323 2.20538 81.323 2.06238V0.0163845H69.6245ZM89.98 0.0163845H85.756C84.7935 0.0163845 84.535 0.467385 84.535 1.13288V21.2629H88.8415C89.6005 21.2629 89.98 21.0319 89.98 20.1409V0.0163845ZM100.551 0.0163845H96.371C95.4195 -0.000115529 95.1115 0.379381 95.1115 1.18788V18.2819C95.1115 19.7009 95.5295 21.2574 98.362 21.2574H107.536C107.778 21.2574 107.894 21.1089 107.894 20.8944V18.9639H102.229C101.101 18.9089 100.551 18.3314 100.551 17.2149V0.0163845ZM132 0.0163845H125.708C124.636 0.0163845 124.025 0.522383 123.783 1.47938L120.318 16.1259H120.219L116.644 0.0218815H111.749C110.803 0.0218815 110.506 0.505881 110.506 1.25388V21.2574H112.574C112.904 21.2574 113.047 21.0924 113.047 20.7514V3.98188H113.372L117.794 21.2574H120.692C121.786 21.2574 122.194 20.8119 122.463 19.7284L126.434 3.98188H126.753V21.2574H130.62C131.566 21.2574 132 20.8889 132 19.9539V0.0163845ZM57.156 0.0218815C56.2045 0.0218815 55.946 0.483881 55.946 1.14938V11.4344L61.061 7.41938C61.259 7.26538 61.369 7.14438 61.38 6.81438V0.0218815H57.156ZM55.946 11.5609V21.2574H60.2415C61.0005 21.2574 61.3855 21.0374 61.3855 20.1409V11.5609H55.946Z" fill="#333333"/>
</svg>
