<svg width="132" height="22" viewBox="0 0 132 22" fill="none" xmlns="http://www.w3.org/2000/svg">
<path d="M97.8285 7.41699H92.1855C92.1797 6.88385 92.083 6.3556 91.8995 5.855C91.6851 5.29728 91.3463 4.79584 90.9088 4.38886C90.4713 3.98188 89.9467 3.6801 89.375 3.5065C87.7355 2.98624 85.9699 3.02298 84.3535 3.611C83.673 3.85922 83.0561 4.25537 82.5473 4.77086C82.0385 5.28636 81.6504 5.90836 81.411 6.59199C80.5162 9.11652 80.4392 11.8587 81.191 14.4295C81.3963 15.1576 81.7695 15.8274 82.2805 16.3852C82.7915 16.943 83.4261 17.3733 84.1335 17.6415C85.8572 18.2929 87.75 18.3452 89.507 17.79C90.0257 17.6231 90.5035 17.3488 90.9091 16.9849C91.3147 16.621 91.6391 16.1757 91.861 15.678C92.158 14.9906 92.3078 14.2487 92.301 13.5H97.9715C97.9338 14.1497 97.8437 14.7953 97.702 15.4305C97.207 17.438 95.799 19.1265 93.94 19.9075C90.013 21.5666 85.6227 21.7694 81.5595 20.4795C78.936 19.6545 76.6645 17.768 75.7625 15.1995C75.2756 13.8065 75.0283 12.3411 75.031 10.8655C75.031 8.73149 75.405 6.66349 76.428 4.94199C77.484 3.17649 79.101 1.81249 81.059 1.08649C85.1898 -0.473838 89.7681 -0.349407 93.808 1.43299C94.7762 1.85134 95.6301 2.49564 96.298 3.31191C96.9659 4.12818 97.4285 5.09265 97.647 6.12449C97.7405 6.54249 97.801 6.98249 97.8285 7.41699ZM75.944 20.815H69.96L68.2 16.4535H58.113C58.1075 16.459 56.3805 20.8205 56.3585 20.815H50.3635L59.862 0.503493C59.862 0.514493 66.4565 0.503493 66.4565 0.503493L75.944 20.815ZM106.101 20.8205H100.727C100.727 20.8205 100.754 0.508995 100.727 0.508995H106.101V8.63249H116.968C116.968 8.65999 116.958 0.503495 116.968 0.508995H122.353C122.353 0.508995 122.369 20.782 122.353 20.8205H116.968V11.8775C116.968 11.905 106.101 11.8775 106.101 11.8775C106.112 11.916 106.101 20.8095 106.101 20.8205ZM5.3845 20.8205H0C0 20.8205 0.0275 0.508995 0 0.508995H5.3845C5.3845 0.508995 5.3735 8.68749 5.3845 8.63249H16.2525C16.2525 8.65999 16.2305 0.503495 16.2525 0.508995H21.6315C21.6315 0.508995 21.6535 20.782 21.6315 20.8205H16.2525V11.8775C16.2525 11.905 5.3845 11.8775 5.3845 11.8775C5.3845 11.916 5.3735 20.815 5.3845 20.8205ZM46.805 20.815H41.4315V3.95749H33.198C33.198 3.95749 33.209 0.514495 33.198 0.508995C33.209 0.514495 55.0385 0.508995 55.0385 0.508995V3.95749H46.805V20.815ZM25.8995 0.508995H31.273V20.815H25.8995V0.508995ZM126.616 0.508995H132V20.815H126.616V0.508995ZM63.162 3.95749L59.4165 13.1975H66.902L63.162 3.95749Z" fill="#333333"/>
</svg>
