<svg width="730" height="420" viewBox="0 0 730 420" fill="none" xmlns="http://www.w3.org/2000/svg">
<path d="M365 419.965C566.584 419.965 730 410.57 730 398.981C730 387.392 566.584 377.997 365 377.997C163.416 377.997 0 387.392 0 398.981C0 410.57 163.416 419.965 365 419.965Z" fill="#DBDBDB"/>
<path d="M664.581 0H116.247V17.4376H664.581V0Z" fill="#F2F2F2"/>
<path d="M130.92 12.9747C133.414 12.9747 135.435 10.9542 135.435 8.46177C135.435 5.96934 133.414 3.94882 130.92 3.94882C128.427 3.94882 126.405 5.96934 126.405 8.46177C126.405 10.9542 128.427 12.9747 130.92 12.9747Z" fill="#A900F8"/>
<path d="M145.593 12.9747C148.087 12.9747 150.108 10.9542 150.108 8.46177C150.108 5.96934 148.087 3.94882 145.593 3.94882C143.1 3.94882 141.078 5.96934 141.078 8.46177C141.078 10.9542 143.1 12.9747 145.593 12.9747Z" fill="#A900F8"/>
<path d="M160.267 12.9747C162.76 12.9747 164.781 10.9542 164.781 8.46177C164.781 5.96934 162.76 3.94882 160.267 3.94882C157.773 3.94882 155.752 5.96934 155.752 8.46177C155.752 10.9542 157.773 12.9747 160.267 12.9747Z" fill="#A900F8"/>
<path d="M116.635 275.79L116.247 276.124V393.754H664.581V187.133L658.046 187.628L116.635 275.79Z" fill="#3F3D56"/>
<path d="M308.941 116.645H155.819V122.817H308.941V116.645Z" fill="#3F3D56"/>
<path d="M308.941 130.223H155.819V136.395H308.941V130.223Z" fill="#3F3D56"/>
<path d="M207.683 143.801H155.819V149.972H207.683V143.801Z" fill="#3F3D56"/>
<path d="M621.205 287.986H468.083V294.158H621.205V287.986Z" fill="white"/>
<path d="M621.205 301.564H468.083V307.735H621.205V301.564Z" fill="white"/>
<path d="M519.947 315.141H468.083V321.313H519.947V315.141Z" fill="white"/>
<path d="M372.946 388.064C376.273 388.064 378.97 385.368 378.97 382.043C378.97 378.718 376.273 376.022 372.946 376.022C369.62 376.022 366.923 378.718 366.923 382.043C366.923 385.368 369.62 388.064 372.946 388.064Z" fill="#F2F2F2"/>
<path d="M390.414 388.666C393.74 388.666 396.437 385.97 396.437 382.645C396.437 379.32 393.74 376.625 390.414 376.625C387.087 376.625 384.391 379.32 384.391 382.645C384.391 385.97 387.087 388.666 390.414 388.666Z" fill="#F2F2F2"/>
<path d="M407.881 389.268C411.208 389.268 413.904 386.572 413.904 383.247C413.904 379.922 411.208 377.227 407.881 377.227C404.555 377.227 401.858 379.922 401.858 383.247C401.858 386.572 404.555 389.268 407.881 389.268Z" fill="#F2F2F2"/>
<path d="M390.469 387.462C393.13 387.462 395.288 385.305 395.288 382.645C395.288 379.985 393.13 377.829 390.469 377.829C387.808 377.829 385.65 379.985 385.65 382.645C385.65 385.305 387.808 387.462 390.469 387.462Z" fill="#3F3D56"/>
<path d="M258.177 187.289H206.313V199.117H258.177V187.289Z" fill="#3F3D56"/>
<path d="M566.454 347.34H514.59V359.167H566.454V347.34Z" fill="white"/>
<path opacity="0.3" d="M232.537 229.128C252.351 229.128 268.414 213.072 268.414 193.266C268.414 173.46 252.351 157.404 232.537 157.404C212.723 157.404 196.66 173.46 196.66 193.266C196.66 213.072 212.723 229.128 232.537 229.128Z" fill="#6C63FF"/>
<path opacity="0.3" d="M232.537 217.174C245.747 217.174 256.455 206.47 256.455 193.266C256.455 180.062 245.747 169.358 232.537 169.358C219.327 169.358 208.619 180.062 208.619 193.266C208.619 206.47 219.327 217.174 232.537 217.174Z" fill="#6C63FF"/>
<path d="M232.537 209.868C241.71 209.868 249.147 202.435 249.147 193.266C249.147 184.096 241.71 176.663 232.537 176.663C223.364 176.663 215.927 184.096 215.927 193.266C215.927 202.435 223.364 209.868 232.537 209.868Z" fill="#A900F8"/>
<path opacity="0.3" d="M534.42 140.251C554.234 140.251 570.297 124.195 570.297 104.389C570.297 84.5825 554.234 68.5266 534.42 68.5266C514.605 68.5266 498.543 84.5825 498.543 104.389C498.543 124.195 514.605 140.251 534.42 140.251Z" fill="#6C63FF"/>
<path opacity="0.3" d="M534.42 128.297C547.629 128.297 558.338 117.593 558.338 104.389C558.338 91.1845 547.629 80.4805 534.42 80.4805C521.21 80.4805 510.502 91.1845 510.502 104.389C510.502 117.593 521.21 128.297 534.42 128.297Z" fill="#6C63FF"/>
<path d="M534.42 120.991C543.593 120.991 551.03 113.558 551.03 104.389C551.03 95.2191 543.593 87.7858 534.42 87.7858C525.246 87.7858 517.81 95.2191 517.81 104.389C517.81 113.558 525.246 120.991 534.42 120.991Z" fill="#A900F8"/>
<path opacity="0.3" d="M540.815 389.179C560.629 389.179 576.692 373.123 576.692 353.317C576.692 333.511 560.629 317.455 540.815 317.455C521 317.455 504.937 333.511 504.937 353.317C504.937 373.123 521 389.179 540.815 389.179Z" fill="#6C63FF"/>
<path opacity="0.3" d="M540.815 377.225C554.024 377.225 564.733 366.521 564.733 353.317C564.733 340.113 554.024 329.409 540.815 329.409C527.605 329.409 516.897 340.113 516.897 353.317C516.897 366.521 527.605 377.225 540.815 377.225Z" fill="#6C63FF"/>
<path d="M540.815 369.919C549.988 369.919 557.424 362.486 557.424 353.317C557.424 344.147 549.988 336.714 540.815 336.714C531.641 336.714 524.205 344.147 524.205 353.317C524.205 362.486 531.641 369.919 540.815 369.919Z" fill="#A900F8"/>
<path d="M59.7435 72.6281L74.51 73.2005L75.2462 54.2229L60.4797 53.6506L59.7435 72.6281Z" fill="#6C63FF"/>
<path d="M127.091 120.114C127.091 120.114 147.541 110.348 147.213 118.782C146.886 127.217 126.601 132.766 126.601 132.766L127.091 120.114Z" fill="#FFB9B9"/>
<path d="M115.872 191.48C115.872 191.48 125.52 215.083 129.084 232.116C132.649 249.148 138.078 272.588 131.095 289.212C124.112 305.836 104.259 354.693 104.054 359.965C103.85 365.236 105.755 370.589 101.536 370.426C97.3166 370.262 74.3575 363.037 73.4255 359.833C72.4934 356.629 81.2586 348.522 81.2586 348.522L102.903 280.728L80.3204 236.561L64.0319 302.451L60.8416 384.687C60.8416 384.687 45.1839 379.856 42.9108 383.992C42.9108 383.992 35.8957 374.217 35.0045 369.959C34.1134 365.701 38.3175 284.56 38.3175 284.56C38.3175 284.56 23.9452 192.14 35.5474 192.59C47.1497 193.04 92.5944 165.236 115.872 191.48Z" fill="#2F2E41"/>
<path d="M101.699 366.209C101.699 366.209 112.402 389.853 113.415 390.948C114.429 392.043 121.404 402.873 116.13 402.668C110.856 402.464 98.4035 396.702 89.2379 387.899C80.0724 379.097 67.988 363.846 69.0837 362.833C70.1793 361.819 77.6853 358.942 77.6853 358.942L101.699 366.209Z" fill="#2F2E41"/>
<path d="M58.9366 379.334C58.9366 379.334 59.5823 389.917 61.5282 394.216C63.4741 398.515 63.2287 404.841 57.955 404.637C52.6812 404.432 39.0513 401.792 39.0513 401.792C39.0513 401.792 38.2419 395.426 39.3376 394.412C40.4332 393.399 45.1021 381.965 43.1153 378.72C41.1285 375.476 58.9366 379.334 58.9366 379.334Z" fill="#2F2E41"/>
<path d="M51.1345 35.8661C51.1345 35.8661 39.8916 53.3805 35.509 57.4342C31.1264 61.4879 43.4562 70.4129 43.4562 70.4129L65.5242 73.3801C65.5242 73.3801 65.2465 53.3074 66.3831 51.2397C67.5197 49.1719 51.1345 35.8661 51.1345 35.8661Z" fill="#FFB9B9"/>
<path d="M70.3158 58.7834C70.3158 58.7834 65.7696 67.0543 61.5506 66.8908C57.3316 66.7272 35.509 57.4342 34.577 54.2304C33.6449 51.0266 27.3486 77.1798 27.3486 77.1798L80.7468 171.112L93.7719 162.114L87.4608 106.963L82.2775 77.1972L70.3158 58.7834Z" fill="#A900F8"/>
<path d="M32.6074 142.849C34.7374 147.303 36.0678 151.948 35.8833 156.703C35.8751 156.913 35.8669 157.124 35.8482 157.335C35.3429 167.093 31.7466 178.378 30.4564 186.585C29.5203 192.472 29.7867 196.77 33.2334 197.78C41.5896 200.215 32.015 201.956 64.3442 212.712C96.6733 223.468 102.315 214.184 102.397 212.075C102.479 209.967 97.8186 193.948 98.9142 192.934C100.01 191.921 114.245 206.199 118.545 204.254C122.846 202.309 119.036 191.603 119.036 191.603C119.036 191.603 109.348 169.053 109.552 163.782C109.757 158.51 94.8762 133.648 94.8762 133.648L84.7551 67.7902C84.7551 67.7902 80.8633 59.1922 75.6304 57.9335C70.3976 56.6747 66.0559 59.6741 66.0559 59.6741L74.8124 79.0196L84.0511 113.166L82.5055 125.777C82.5055 125.777 71.7622 103.187 64.7062 94.4663C57.6501 85.7456 42.606 65.1005 42.606 65.1005C42.606 65.1005 39.0937 53.2545 41.7451 49.7144C44.397 46.1639 30.6852 45.6324 24.8388 60.1883C21.7402 67.9028 16.7095 79.4072 13.558 90.1185C10.7497 99.6076 9.42319 108.478 12.2054 113.549C16.4576 121.295 27.1542 131.477 32.6074 142.849Z" fill="#575A89"/>
<path opacity="0.1" d="M12.2054 113.549C16.4577 121.295 27.1542 131.477 32.6074 142.849C34.0317 137.72 35.7693 132.413 35.7693 132.413C35.7693 132.413 42.4337 96.7706 22.7207 87.5593C19.4543 87.2436 16.1875 88.1561 13.558 90.1184C10.7497 99.6076 9.42319 108.478 12.2054 113.549Z" fill="black"/>
<path d="M90.4614 111.303L107.174 116.174L130.378 117.074L132.765 137.228L94.6308 139.974C94.6308 139.974 85.1059 113.207 90.4614 111.303Z" fill="#575A89"/>
<path d="M63.2096 179.069C63.2096 179.069 85.5674 182.776 80.4645 189.502C75.3616 196.227 55.5552 189.157 55.5552 189.157L63.2096 179.069Z" fill="#FFB9B9"/>
<path opacity="0.1" d="M35.8482 157.335C35.3429 167.093 31.7467 178.378 30.4565 186.585C37.5789 193.323 44.3518 199.267 46.9043 199.365C52.178 199.57 60.6569 198.843 63.7803 200.02C66.9037 201.197 68.7355 181.206 68.7355 181.206C68.7355 181.206 66.8714 174.798 58.5561 171.308C52.9435 168.947 42.1849 162.543 35.8482 157.335Z" fill="black"/>
<path d="M22.966 81.2335C22.966 81.2335 5.11708 78.4299 6.08135 108.032C7.04561 137.635 4.19989 156.53 11.3786 162.088C18.5574 167.646 41.8759 192.835 47.1497 193.04C52.4234 193.244 60.9023 192.517 64.0257 193.694C67.149 194.871 68.9809 174.88 68.9809 174.88C68.9809 174.88 67.1168 168.472 58.8015 164.982C50.4862 161.492 30.8959 149.118 31.0595 144.901C31.2231 140.684 36.0147 126.087 36.0147 126.087C36.0147 126.087 42.6791 90.4448 22.966 81.2335Z" fill="#575A89"/>
<path d="M66.8739 61.8002C79.6991 61.8002 90.0959 51.4077 90.0959 38.588C90.0959 25.7682 79.6991 15.3758 66.8739 15.3758C54.0488 15.3758 43.652 25.7682 43.652 38.588C43.652 51.4077 54.0488 61.8002 66.8739 61.8002Z" fill="#FFB9B9"/>
<path d="M82.5099 5.31817C83.07 5.80055 83.7407 6.13701 84.4624 6.29759C84.8247 6.36215 85.1978 6.28082 85.5003 6.07136C85.8029 5.8619 86.0102 5.54131 86.0771 5.17959C86.6084 6.28096 87.2078 7.45479 88.2926 8.01993C89.3773 8.58506 91.0546 8.11118 91.211 6.89848C91.3694 7.81925 91.7769 8.67912 92.3894 9.38485C93.0624 10.0263 94.2829 10.1882 94.8705 9.46776C94.3955 12.0627 94.6887 14.7314 94.5395 17.3653C94.3903 19.9991 93.6877 22.7914 91.6969 24.5233C88.7936 27.0492 84.4277 26.4258 80.6087 25.9473C80.0311 25.8261 79.4319 25.8589 78.871 26.0423C77.441 26.6513 77.5059 28.641 77.4866 30.1946C77.37 32.9205 76.2907 35.5169 74.4404 37.5227C72.59 39.5285 70.0884 40.8139 67.3798 41.1508C65.8639 41.3846 64.3172 41.0073 63.0795 40.1017C61.9952 39.183 61.4413 37.6856 60.1988 36.9955C58.1777 35.8729 55.7265 37.5101 54.2488 39.2877C52.7711 41.0654 51.3147 43.252 49.0255 43.5774C45.9979 44.0078 43.692 40.9236 42.5607 38.0838C40.9998 34.1035 40.252 29.8511 40.3614 25.5774C40.4707 21.3036 41.435 17.095 43.1974 13.1997C49.519 -0.574724 71.1139 -2.75342 82.5099 5.31817Z" fill="#2F2E41"/>
<path d="M639.957 374.406C648.135 388.347 664.63 393.867 664.63 393.867C664.63 393.867 667.864 376.783 659.686 362.842C651.507 348.9 635.013 343.381 635.013 343.381C635.013 343.381 631.778 360.465 639.957 374.406Z" fill="#BFA5CB"/>
<path d="M645.06 369.54C659.204 377.37 665.129 393.718 665.129 393.718C665.129 393.718 648.123 397.37 633.979 389.539C619.835 381.709 613.91 365.362 613.91 365.362C613.91 365.362 630.916 361.71 645.06 369.54Z" fill="#A900F8"/>
</svg>
