<svg width="132" height="24" viewBox="0 0 132 24" fill="none" xmlns="http://www.w3.org/2000/svg">
<path d="M2.8105 17.203H0V2.82051H2.8105V17.203ZM2.8545 10.0585L7.205 2.82051H10.3455L5.731 9.95951L10.3455 17.1975H7.2105L2.8545 10.0585ZM19.9595 11.3675V17.203H17.149V2.82051H19.9595V8.65601H24.596V2.82051H27.4065V17.203H24.6015V11.3675H19.9595ZM38.4945 17.203H35.684V2.82051H39.0995C40.1885 2.82051 40.997 2.85351 41.5305 2.93601C42.1826 2.99853 42.8119 3.20823 43.3711 3.5493C43.9304 3.89037 44.4049 4.35392 44.759 4.90501C45.1966 5.63317 45.4197 6.47013 45.4025 7.31951C45.4321 8.34134 45.1076 9.34199 44.484 10.152C43.8621 10.933 42.9758 11.4592 41.9925 11.6315L45.584 17.2085H42.2345L38.5055 10.5425L38.4945 17.203ZM38.4945 9.83301H39.1215C40.2655 9.83301 41.129 9.62951 41.7285 9.21701C42.0169 9.01604 42.2495 8.74503 42.4044 8.42946C42.5593 8.11389 42.6314 7.76412 42.614 7.41301C42.614 6.64851 42.3665 6.08751 41.866 5.72451C41.371 5.36151 40.5955 5.18001 39.545 5.18001H38.4945V9.83301ZM85.2995 17.203H82.5385V2.82051H85.206L91.157 12V2.82051H93.918V17.203H91.3055L85.2995 7.74301V17.203ZM101.59 9.98151C101.576 8.48482 102.013 7.01848 102.844 5.77401C103.554 4.73451 104.451 3.94251 105.523 3.38151C106.485 2.88006 107.545 2.59422 108.629 2.54388C109.712 2.49354 110.794 2.67991 111.799 3.09001C113.61 3.85111 115.053 5.28988 115.819 7.09951C116.555 8.93334 116.565 10.9787 115.846 12.8195C115.489 13.7215 114.972 14.5245 114.29 15.2175C113.608 15.9358 112.786 16.5076 111.875 16.8982C110.965 17.2887 109.984 17.4897 108.993 17.489C107.921 17.489 106.937 17.2965 106.023 16.9115C105.113 16.5215 104.295 15.9422 103.625 15.212C102.284 13.8051 101.552 11.9252 101.59 9.98151ZM104.533 9.88251C104.524 11.0607 104.958 12.1993 105.748 13.0725C106.169 13.541 106.682 13.9174 107.255 14.178C107.8 14.4307 108.393 14.5639 108.993 14.5685C109.586 14.5817 110.175 14.4689 110.722 14.2376C111.268 14.0062 111.758 13.6616 112.161 13.2265C112.584 12.7808 112.914 12.2558 113.133 11.6819C113.352 11.108 113.456 10.4965 113.438 9.88251C113.446 9.30047 113.335 8.72287 113.113 8.18486C112.891 7.64684 112.561 7.15967 112.145 6.75301C111.745 6.33473 111.263 6.00355 110.73 5.78019C110.196 5.55684 109.622 5.44613 109.043 5.45501C108.45 5.44322 107.86 5.55165 107.31 5.77379C106.76 5.99592 106.261 6.32715 105.842 6.74751C105.421 7.15241 105.087 7.63965 104.862 8.17897C104.636 8.71828 104.525 9.29813 104.533 9.88251ZM123.173 12.7535L125.752 12.748V12.9515C125.752 13.5565 125.906 14.0405 126.219 14.398C126.373 14.5765 126.566 14.7182 126.782 14.8124C126.998 14.9067 127.232 14.9511 127.468 14.9425C127.712 14.9548 127.956 14.9161 128.184 14.829C128.412 14.7419 128.62 14.6082 128.794 14.4365C129.132 14.0611 129.308 13.5666 129.283 13.0615C129.283 12.1375 128.623 11.472 127.303 11.0705C127.167 11.031 127.031 10.9888 126.896 10.944C125.78 10.5975 124.949 10.097 124.41 9.45901C123.855 8.77121 123.568 7.90569 123.602 7.02251C123.602 5.67501 123.976 4.58601 124.724 3.77201C125.104 3.36342 125.568 3.04219 126.085 2.83045C126.601 2.61871 127.158 2.52149 127.715 2.54551C128.882 2.54551 129.811 2.90851 130.498 3.63451C131.186 4.36051 131.577 5.38351 131.654 6.68701H129.102V6.56601C129.11 6.36389 129.078 6.16213 129.006 5.97301C128.934 5.7839 128.824 5.6114 128.684 5.46601C128.54 5.32591 128.369 5.21658 128.182 5.1447C127.995 5.07283 127.795 5.03993 127.594 5.04801C127.132 5.04801 126.77 5.19101 126.5 5.48251C126.23 5.77401 126.104 6.16451 126.104 6.65951C126.104 6.87401 126.132 7.05551 126.187 7.21501C126.242 7.38001 126.329 7.52301 126.45 7.64951C126.72 7.94651 127.303 8.21601 128.188 8.47451C128.585 8.57901 128.887 8.66701 129.096 8.74401C130.081 9.07951 130.812 9.55801 131.285 10.185C131.758 10.812 132 11.6095 132 12.583C132 14.068 131.587 15.2505 130.762 16.1525C130.347 16.6004 129.839 16.9529 129.274 17.1855C128.709 17.4182 128.1 17.5255 127.49 17.5C126.908 17.5213 126.329 17.4163 125.791 17.1922C125.254 16.9681 124.771 16.6303 124.377 16.202C123.602 15.322 123.195 14.1725 123.173 12.7535ZM95.4965 20.107L95.1115 20.5305C94.9462 20.3776 94.7542 20.2565 94.545 20.173C94.351 20.0951 94.1436 20.0559 93.9345 20.0575C93.7287 20.0508 93.5239 20.0886 93.334 20.1683C93.1442 20.248 92.9738 20.3678 92.8345 20.5195C92.5375 20.8275 92.3945 21.2015 92.3945 21.647C92.3945 22.0925 92.543 22.472 92.8345 22.7745C93.1315 23.0825 93.4945 23.2365 93.9345 23.2365C94.3138 23.2412 94.6823 23.1105 94.974 22.868V21.9165H94.1215V21.3555H95.5845V23.2035C95.3378 23.3957 95.0657 23.5531 94.776 23.671C94.5087 23.7717 94.2256 23.8239 93.94 23.825C93.6522 23.8342 93.3656 23.7843 93.0979 23.6783C92.8302 23.5724 92.587 23.4127 92.3834 23.2091C92.1798 23.0055 92.0201 22.7623 91.9142 22.4946C91.8083 22.2269 91.7583 21.9403 91.7675 21.6525C91.768 21.2321 91.889 20.8206 92.1161 20.4667C92.3432 20.1129 92.6669 19.8316 93.049 19.656C93.6122 19.4249 94.243 19.421 94.809 19.645C95.0705 19.7443 95.3058 19.9024 95.4965 20.107ZM101.497 19.59H102.284C102.465 19.5901 102.647 19.6012 102.828 19.623C102.958 19.645 103.084 19.6858 103.202 19.744C103.378 19.8375 103.521 19.9805 103.62 20.162C103.719 20.3435 103.774 20.558 103.774 20.789C103.781 21.0491 103.686 21.3016 103.51 21.493C103.325 21.6941 103.076 21.8244 102.806 21.8615L104.065 23.5665L103.483 23.814L102.096 21.8065V23.715L101.48 23.7645L101.497 19.59ZM102.118 20.14V21.449H102.339C102.603 21.449 102.806 21.394 102.954 21.273C103.026 21.2127 103.084 21.1368 103.122 21.051C103.16 20.9652 103.178 20.8718 103.175 20.778C103.18 20.6879 103.164 20.5978 103.129 20.5148C103.094 20.4318 103.04 20.3581 102.971 20.2995C102.791 20.1796 102.577 20.1217 102.361 20.1345H102.118V20.14ZM111.678 19.4855C112.196 19.4776 112.698 19.664 113.086 20.008C113.358 20.2521 113.567 20.5599 113.691 20.904C113.816 21.2481 113.854 21.6178 113.801 21.9801C113.748 22.3423 113.607 22.6858 113.389 22.9799C113.171 23.274 112.883 23.5096 112.552 23.6655C112.273 23.7863 111.971 23.8463 111.666 23.8415C111.148 23.8416 110.647 23.6562 110.253 23.319C110.016 23.1117 109.826 22.8564 109.695 22.5701C109.564 22.2837 109.496 21.9728 109.494 21.658C109.496 21.2171 109.63 20.7868 109.879 20.4229C110.128 20.0591 110.48 19.7785 110.891 19.6175C111.143 19.5262 111.41 19.4815 111.678 19.4855ZM111.678 20.0575C111.472 20.0508 111.267 20.0886 111.077 20.1683C110.887 20.248 110.717 20.3678 110.577 20.5195C110.28 20.8275 110.137 21.2015 110.137 21.647C110.137 22.0925 110.286 22.472 110.577 22.7745C110.874 23.0825 111.237 23.231 111.683 23.231C111.889 23.2289 112.093 23.186 112.282 23.1048C112.471 23.0236 112.643 22.9057 112.787 22.758C112.93 22.6102 113.043 22.4355 113.119 22.2439C113.195 22.0523 113.232 21.8476 113.229 21.6415C113.235 21.4345 113.2 21.2282 113.125 21.0352C113.05 20.8422 112.936 20.6663 112.791 20.5183C112.646 20.3703 112.473 20.2532 112.281 20.174C112.09 20.0948 111.885 20.0552 111.678 20.0575ZM120.274 19.535V21.878C120.274 22.373 120.34 22.725 120.466 22.9285C120.593 23.1265 120.808 23.2255 121.11 23.2255C121.413 23.2255 121.638 23.132 121.77 22.9395C121.902 22.747 121.974 22.4335 121.974 21.9935V19.5955L122.567 19.5405V22.142C122.567 22.4775 122.545 22.736 122.496 22.9175C122.446 23.099 122.358 23.253 122.248 23.385C122.118 23.5309 121.954 23.6424 121.77 23.7095C121.568 23.7886 121.354 23.8297 121.137 23.8305C120.642 23.8305 120.263 23.6875 120.021 23.4125C119.774 23.1375 119.652 22.7085 119.652 22.142V19.6065L120.274 19.535ZM128.606 19.59H129.701C130.169 19.59 130.531 19.6945 130.779 19.909C131.027 20.1235 131.147 20.437 131.147 20.8385C131.147 21.2235 131.005 21.526 130.724 21.757C130.383 21.9985 129.97 22.1168 129.553 22.0925C129.448 22.0906 129.343 22.0851 129.239 22.076H129.223V23.7095L128.606 23.759V19.59ZM129.223 20.14V21.515L129.393 21.537C129.461 21.5417 129.529 21.5436 129.596 21.5425C129.893 21.5425 130.124 21.4875 130.279 21.3665C130.357 21.304 130.42 21.2233 130.461 21.1314C130.502 21.0395 130.521 20.939 130.515 20.8385C130.515 20.5965 130.443 20.4205 130.301 20.305C130.158 20.1895 129.932 20.1345 129.624 20.1345H129.223V20.14ZM63.0575 16.268C58.124 16.092 51.381 13.837 49.984 10.5865C48.7795 7.62751 49.9785 4.17901 55.671 1.73151C59.0535 0.323513 64.163 -0.0724872 68.1065 0.290513C73.6945 0.802013 79.024 3.68951 79.0295 3.70601V7.75951L79.024 8.02901C79.024 8.02901 77.2915 6.46151 75.1245 5.19651C73.084 4.00301 71.2195 3.16701 67.5125 2.82601C66.6435 2.74901 65.1695 2.55101 62.777 2.88101C61.809 3.01851 60.4505 3.11751 57.3815 4.46501C56.4498 4.88194 55.571 5.40813 54.7635 6.03251C54.3362 6.37998 53.9268 6.74896 53.537 7.13801C52.6625 8.23251 52.2005 9.05751 52.4205 10.548C52.6735 11.67 53.174 12.374 54.615 13.4465C55.242 13.914 55.3135 13.9085 55.5885 14.0515C58.168 15.388 60.225 15.8775 63.1675 16.246M63.3325 3.62901C68.2825 3.60701 75.3005 5.58701 77.121 8.78251C78.7215 11.6865 77.979 15.1735 72.6275 17.8355C69.4485 19.3755 64.3995 19.975 60.423 19.766C54.78 19.4745 49.082 16.796 49.0765 16.7905L48.5375 12.748L48.5045 12.4785C48.5045 12.4785 50.4405 13.9745 52.7725 15.157C54.967 16.2625 56.9415 17.0325 60.6815 17.225C61.556 17.2745 63.052 17.401 65.395 16.983C66.341 16.8125 67.6885 16.6585 70.565 15.1955C71.9061 14.5075 73.0897 13.5486 74.041 12.3795C74.767 11.252 75.119 10.4105 74.701 8.93651C74.294 7.83101 73.7055 7.14901 72.1325 6.13151C71.4505 5.69151 71.379 5.69701 71.082 5.56501C68.332 4.33851 66.22 3.93151 63.228 3.67851" fill="#333333"/>
</svg>
