<svg width="132" height="22" viewBox="0 0 132 22" fill="none" xmlns="http://www.w3.org/2000/svg">
<path d="M28.457 0.946045C22.5995 0.946045 19.778 1.97454 19.382 7.26004C19.2941 8.50472 19.2538 9.75229 19.261 11C19.261 12.199 19.283 13.4805 19.3765 14.74C19.778 20.02 22.5995 21.054 28.4515 21.054C34.309 21.054 37.1415 20.02 37.543 14.74C37.642 13.4805 37.664 12.199 37.664 11C37.664 9.80655 37.6365 8.51954 37.543 7.26004C37.1415 1.98004 34.309 0.946045 28.457 0.946045ZM49.302 0.946045C47.047 0.946045 44.792 1.16605 43.8845 1.61155C42.1135 2.46955 40.887 3.70154 40.887 7.22154C40.887 9.28404 41.437 10.8185 42.4985 11.5995C44.044 12.7545 45.54 12.8645 49.7035 13.0845C51.381 13.1725 52.2885 13.5135 52.2885 14.9545C52.2885 16.7805 50.6715 16.7805 49.1865 16.7805C47.6465 16.7805 47.1735 16.643 46.6565 16.2525C46.1945 15.906 46.079 15.2845 46.0735 14.3385H40.8485C40.8485 17.017 40.9035 19.2005 43.4335 20.3005C45.6885 21.2905 52.6185 21.2905 54.6975 20.3775C56.5015 19.58 57.794 18.524 57.794 14.9105C57.794 12.408 57.2935 10.868 55.374 9.73505C54.01 8.92655 50.1765 8.80005 48.235 8.67905C46.816 8.59105 46.277 8.07404 46.277 6.82004C46.277 5.18654 47.8445 5.12605 49.192 5.12605C50.303 5.12605 51.062 5.22504 51.6065 5.70354C51.8155 5.91804 52.0795 6.24804 52.0905 7.39205H57.299C57.299 5.14805 57.222 2.72805 54.7965 1.61155C53.834 1.17155 51.568 0.946045 49.3075 0.946045H49.302ZM61.435 1.28705V20.713H66.913V13.222H73.271V20.713H78.749V1.28705H73.271V8.38205H66.913V1.28705H61.435ZM83.5615 1.28705V20.713H89.0725V1.28705H83.5615ZM93.962 1.28705V20.713H104.34C109.12 20.713 110.731 18.645 110.731 15.477C110.731 13.2715 110.226 11.3245 107.195 10.56C109.637 9.93305 110.352 8.47555 110.352 6.36905C110.352 2.10105 107.674 1.28705 103.856 1.28705H93.962ZM118.014 1.28705L112.139 20.713H117.843L118.872 17.1105H125.252L126.296 20.713H132L126.115 1.28705H118.014ZM0 1.29805V6.14354H5.8025V20.7185H11.605V6.14354H17.4075V1.30355H0V1.29805ZM28.457 5.48905C30.756 5.48905 31.9385 5.83554 32.087 8.82754C32.109 9.29504 32.142 9.93305 32.142 11C32.142 12.0725 32.109 12.705 32.087 13.1725C31.9385 16.1645 30.756 16.511 28.457 16.511C26.158 16.511 24.9755 16.1645 24.827 13.1725C24.7937 12.4489 24.779 11.7245 24.783 11C24.783 9.93305 24.7995 9.29504 24.827 8.82754C24.9755 5.83554 26.158 5.48905 28.457 5.48905ZM99.44 5.73655H103.235C104.225 5.73655 104.846 6.20404 104.846 7.33704C104.846 8.30504 104.23 8.90455 103.235 8.90455H99.44V5.73655ZM122.05 6.08855H122.084L124.031 12.7985H120.109L122.05 6.08855ZM99.4455 12.727H103.235C104.77 12.727 105.089 13.409 105.089 14.5035C105.089 15.598 104.484 16.2635 103.235 16.2635H99.44V12.727H99.4455Z" fill="#333333"/>
</svg>
