<svg width="132" height="38" viewBox="0 0 132 38" fill="none" xmlns="http://www.w3.org/2000/svg">
<path d="M78.881 37.3535H73.733V20.903C75.3775 21.8215 77.55 23.51 78.881 25.1325V37.3535ZM35.4475 37.3535H29.029L20.6525 11.4705H26.488L32.252 29.67H32.3235L38.159 11.4705H44.033L35.4475 37.3535ZM61.2975 37.3535H56.4025V34.7465H56.2925C55.7069 35.7745 54.82 36.5981 53.7515 37.106C52.7548 37.5804 51.6654 37.8283 50.5615 37.832C49.4076 37.8703 48.2572 37.6854 47.1735 37.2875C46.3529 36.9708 45.6329 36.4388 45.089 35.7475C44.5574 35.0257 44.1912 34.1957 44.0165 33.3165C43.803 32.2724 43.6998 31.2087 43.7085 30.143V18.615H48.8565V29.2025C48.8565 30.748 49.0985 31.903 49.5825 32.662C50.0665 33.4265 50.9245 33.806 52.1565 33.806C53.559 33.806 54.571 33.388 55.2035 32.5575C55.8305 31.7215 56.144 30.352 56.144 28.4435V18.6205H61.292L61.2975 37.3535ZM79.7335 26.0785L79.7225 25.3525L86.2125 18.6095H92.3065L85.239 25.4955L93.104 37.348H86.867L79.7335 26.0785ZM94.0445 24.3735C94.116 23.1635 94.4185 22.1625 94.952 21.365C95.4741 20.5794 96.1681 19.923 96.9815 19.4455C97.8405 18.9469 98.7778 18.5972 99.7535 18.4115C100.775 18.2078 101.814 18.1046 102.855 18.1035C103.796 18.1035 104.753 18.1695 105.721 18.3015C106.689 18.4335 107.569 18.6975 108.366 19.0825C109.164 19.4675 109.818 20.0065 110.325 20.694C110.83 21.3815 111.084 22.2945 111.084 23.433V33.1845C111.084 34.0315 111.133 34.84 111.226 35.6155C111.273 36.2237 111.445 36.8156 111.732 37.3535H106.513C106.316 36.7682 106.194 36.1601 106.15 35.544C105.353 36.3783 104.352 36.9906 103.246 37.3205C102.14 37.656 100.991 37.8265 99.836 37.8265C98.9395 37.8265 98.109 37.7165 97.3335 37.502C96.5946 37.305 95.9039 36.9587 95.304 36.4845C94.7199 36.0209 94.2543 35.4252 93.9455 34.7465C93.6019 33.958 93.4349 33.1039 93.456 32.244C93.456 31.1825 93.643 30.3025 94.017 29.615C94.364 28.9581 94.8616 28.3927 95.469 27.965C96.063 27.5525 96.7395 27.2445 97.4985 27.041C98.2575 26.8375 99.0275 26.6725 99.7975 26.5515C100.556 26.4344 101.317 26.3372 102.08 26.26C102.828 26.1885 103.493 26.0785 104.071 25.9355C104.572 25.8265 105.044 25.6087 105.451 25.2975C105.793 25.017 105.947 24.6155 105.924 24.082C105.945 23.6241 105.85 23.1685 105.649 22.7565C105.479 22.4435 105.229 22.1816 104.923 21.9975C104.6 21.8091 104.243 21.6858 103.873 21.6345C103.447 21.5711 103.017 21.5398 102.586 21.541C101.568 21.541 100.771 21.7555 100.193 22.1955C99.616 22.63 99.275 23.356 99.176 24.3735H94.0445ZM105.935 28.185C105.698 28.3896 105.421 28.5432 105.122 28.636C104.797 28.746 104.445 28.834 104.071 28.911C103.681 28.9847 103.288 29.0452 102.894 29.0925C102.481 29.142 102.074 29.2025 101.662 29.274C101.277 29.3455 100.892 29.4445 100.518 29.5655C100.167 29.6747 99.8367 29.84 99.539 30.055C99.2594 30.2615 99.0301 30.5285 98.868 30.836C98.6856 31.2085 98.5987 31.6205 98.615 32.035C98.615 32.497 98.6975 32.882 98.868 33.1955C99.0294 33.4981 99.2662 33.7538 99.5555 33.938C99.8675 34.1279 100.213 34.2567 100.573 34.3175C100.958 34.389 101.359 34.4275 101.772 34.4275C102.789 34.4275 103.576 34.257 104.132 33.9215C104.64 33.6298 105.065 33.211 105.363 32.706C105.618 32.2656 105.784 31.7799 105.853 31.276C105.913 30.792 105.941 30.407 105.947 30.1155L105.935 28.185ZM114.416 18.6095H119.312V21.2165H119.421C120.076 20.1275 120.917 19.3355 121.957 18.8405C122.996 18.3455 124.058 18.098 125.147 18.098C126.527 18.098 127.655 18.285 128.54 18.659C129.421 19.033 130.113 19.5555 130.625 20.2155C131.131 20.881 131.488 21.6895 131.692 22.641C131.895 23.609 132 24.665 132 25.8255V37.3535H126.852V26.766C126.852 25.2205 126.61 24.0655 126.126 23.3065C125.642 22.5475 124.784 22.1625 123.552 22.1625C122.15 22.1625 121.137 22.5805 120.505 23.411C119.878 24.2415 119.564 25.6165 119.564 27.525V37.348H114.416V18.6095ZM64.7075 15.381V37.359H69.8555V18.219C68.1841 17.1942 66.4663 16.2472 64.7075 15.381ZM12.1935 16.316C15.1745 7.57099 33.0165 4.36999 52.0465 9.15499C63.459 12.026 72.787 17.592 78.881 23.0975C76.1145 15.799 62.711 5.38749 44.2585 1.82349C23.3915 -2.21351 2.8105 1.33399 0.264001 10.596C-1.573 17.284 6.501 25.1215 18.997 30.4785C13.3815 25.93 10.648 20.826 12.1935 16.316ZM78.8865 19.9185V11.4705H73.7385V14.0335C75.933 15.997 77.6765 17.9935 78.8865 19.9185Z" fill="#333333"/>
</svg>
